<?xml version="1.0" encoding="utf-8"?>
<!-- Generator: Adobe Illustrator 22.0.1, SVG Export Plug-In . SVG Version: 6.00 Build 0)  -->
<svg version="1.1" id="Ebene_1" xmlns="http://www.w3.org/2000/svg" xmlns:xlink="http://www.w3.org/1999/xlink" x="0px" y="0px"
	 viewBox="0 0 841.9 595.3" style="enable-background:new 0 0 841.9 595.3;" xml:space="preserve">
<style type="text/css">
	.st0{fill:#E22320;}
	.st1{}
	.st2{fill:#FFFFFF;}
</style>
<g>
	<g>
		<path class="st0" d="M91,294.3c-0.3,0-0.4,0-0.6,0.1c-4.3,37.5-8.6,75-12.9,112.5c-16,3.1-32,6.5-48,10
			C21.2,343.9,12.9,271,4.8,198c11.4,0,22.9-0.1,34.3-0.1c6,56,12,112,18.1,168c0.3,0,0.4-0.1,0.6-0.1c5.6-56,11.3-112,17.2-168
			c11.3,0,22.7,0,34-0.1c5.5,53.1,11,106.2,16.5,159.3c0.3,0,0.4-0.1,0.6-0.1c6.2-53.1,12.4-106.2,18.8-159.2
			c10.3,0,20.5,0,30.8-0.1c-8.9,65.6-17.6,131.2-26.1,196.8c-15.6,2.4-31.2,5-46.7,7.7C99,366.1,95,330.2,91,294.3z"/>
		<path class="st0" d="M228.3,276.2c16.2-0.7,32.3-1.4,48.5-2c0,10.4-0.1,15.6-0.1,26c-16.2,0.7-32.4,1.6-48.5,2.6
			c-0.1,18.2-0.2,36.5-0.3,54.7c20.4-1.8,40.7-3.4,61.2-4.8c0,10.4-0.1,15.5-0.1,25.9c-32.3,2.5-64.4,5.7-96.5,9.7
			c0.4-63.6,0.7-127.2,1.1-190.8c32.1,0,64.2-0.1,96.3-0.1c0,10.4-0.1,15.5-0.1,25.9c-20.3,0.2-40.7,0.5-61,0.8
			C228.5,241.5,228.4,258.9,228.3,276.2z"/>
		<path class="st0" d="M364.3,275.9c16.5-0.2,33-0.4,49.6-0.4c0,18.7,0,37.3,0,56c1.1,31-26.1,44-53,45.4
			c-28.3,1.4-52.6-12.1-52.8-42.7c0.1-31.2,0.2-62.4,0.4-93.6c0.4-30.3,24.2-45.7,52.8-45.2c27,0.4,53.7,13.6,52.6,44.4
			c0,6.9,0,10.3,0,17.1c-11.1,0-22.3,0.1-33.4,0.2c0-7.6,0-11.4,0-19c0.7-11-8.3-17.4-18.3-17.4c-10,0.1-19,6.6-18.4,17.7
			c-0.1,32.1-0.2,64.1-0.3,96.2c-0.8,11.1,8.5,17,18.3,16.7c9.9-0.3,19.1-6.5,18.4-17.6c0-10.9,0-21.7,0.1-32.6
			c-6.4,0.1-9.7,0.1-16.1,0.3C364.3,291.1,364.3,286.1,364.3,275.9z"/>
		<path class="st0" d="M472.1,276.1c15.2,0.2,30.5,0.5,45.7,0.9c0,10.2,0.1,15.3,0.1,25.6c-15.2-0.5-30.5-0.8-45.7-1.1
			c0,24.4,0.1,48.8,0.1,73.1c-11.8-0.3-23.7-0.6-35.5-0.7c0-58.8-0.1-117.7-0.1-176.5c31.1,0,62.2,0,93.4,0
			c0,10.3,0.1,15.4,0.1,25.7c-19.4-0.2-38.8-0.3-58.1-0.4C472,240.5,472.1,258.3,472.1,276.1z"/>
		<path class="st0" d="M547,197.4c11.8,0,23.5,0,35.3,0c0.3,52.5,0.5,105,0.8,157.4c19.4,1.5,38.8,3.3,58.2,5.3
			c0.1,10.8,0.1,16.3,0.2,27.1c-31.2-3.7-62.4-6.8-93.7-9.1C547.6,318,547.3,257.7,547,197.4z"/>
		<path class="st0" d="M655.8,197.6c11.8,0,23.5,0,35.3,0.1c0.4,65.6,0.7,131.1,1.1,196.7c-11.7-1.8-23.5-3.5-35.3-5
			C656.5,325.4,656.2,261.5,655.8,197.6z"/>
		<path class="st0" d="M834.5,197.9c-11.9,35-24.1,69.9-36.7,104.8c13.6,39.8,26.7,79.7,39.2,119.8c-12.2-2.9-24.5-5.7-36.8-8.3
			c-9.3-29.8-18.8-59.5-28.6-89.2c-0.3,0-0.4,0-0.6-0.1c-9.3,26-18.8,51.9-28.4,77.8c-11-2-21.9-3.8-32.9-5.7
			c13.3-33,26.2-66,38.8-99.2c-12.1-33.5-24.5-66.9-37.3-100.2c12.2,0,24.4,0,36.6,0.1c9,25.9,17.9,51.9,26.6,77.9
			c0.3,0,0.4,0,0.6,0c9.1-25.9,18-51.8,26.7-77.8C812.7,197.9,823.6,197.9,834.5,197.9z"/>
	</g>
</g>
<g class="st1">
	<path class="st2" d="M164.9,161.3h-8.6l-1.5-9.9h-10.5l-1.5,9.9h-7.9l8.7-54.5h12.5L164.9,161.3z M145.3,144h8.3l-4-27.6h-0.2
		L145.3,144z"/>
	<path class="st2" d="M176.6,121.8h-0.2v39.5h-7.7v-54.5h10.7l8.6,32.6h0.2v-32.6h7.6v54.5h-8.8L176.6,121.8z"/>
	<path class="st2" d="M213.4,119.8c0-8.7,4.6-13.7,13-13.7c8.4,0,13,5,13,13.7v28.3c0,8.7-4.6,13.7-13,13.7c-8.4,0-13-5-13-13.7
		V119.8z M222,148.7c0,3.9,1.7,5.4,4.4,5.4c2.7,0,4.4-1.5,4.4-5.4v-29.4c0-3.9-1.7-5.4-4.4-5.4c-2.7,0-4.4,1.5-4.4,5.4V148.7z"/>
	<path class="st2" d="M262.9,161.3c-0.5-1.4-0.8-2.3-0.8-6.7V146c0-5.1-1.7-6.9-5.6-6.9h-3v22.2H245v-54.5h12.9
		c8.9,0,12.7,4.1,12.7,12.5v4.3c0,5.6-1.8,9.2-5.6,11v0.2c4.3,1.8,5.7,5.8,5.7,11.5v8.4c0,2.6,0.1,4.6,0.9,6.6H262.9z M253.5,114.6
		v16.7h3.3c3.2,0,5.1-1.4,5.1-5.8v-5.4c0-3.9-1.3-5.6-4.4-5.6H253.5z"/>
	<path class="st2" d="M276.3,106.8h8.6v54.5h-8.6V106.8z"/>
	<path class="st2" d="M303.9,130.9h12v17.3c0,8.7-4.4,13.7-12.8,13.7c-8.4,0-12.8-5-12.8-13.7v-28.3c0-8.7,4.4-13.7,12.8-13.7
		c8.4,0,12.8,5,12.8,13.7v5.3h-8.1v-5.8c0-3.9-1.7-5.4-4.4-5.4c-2.7,0-4.4,1.5-4.4,5.4v29.4c0,3.9,1.7,5.3,4.4,5.3
		c2.7,0,4.4-1.4,4.4-5.3v-10h-3.9V130.9z"/>
	<path class="st2" d="M321.4,106.8h8.6v54.5h-8.6V106.8z"/>
	<path class="st2" d="M344,121.8h-0.2v39.5h-7.7v-54.5h10.7l8.6,32.6h0.2v-32.6h7.6v54.5h-8.8L344,121.8z"/>
	<path class="st2" d="M397.2,161.3h-8.6l-1.5-9.9h-10.5l-1.5,9.9h-7.9l8.7-54.5h12.5L397.2,161.3z M377.7,144h8.3l-4-27.6h-0.2
		L377.7,144z"/>
	<path class="st2" d="M401.2,106.8h8.6v46.7h14.1v7.8h-22.7V106.8z"/>
	<path class="st2" d="M467.4,161.3h-8.6l-1.5-9.9h-10.5l-1.5,9.9h-7.9l8.7-54.5h12.5L467.4,161.3z M447.8,144h8.3l-4-27.6h-0.2
		L447.8,144z"/>
	<path class="st2" d="M496.9,119.3v1.9c0,5.6-1.7,9.1-5.5,10.9v0.2c4.6,1.8,6.4,5.8,6.4,11.6v4.4c0,8.4-4.4,12.9-13,12.9h-13.5
		v-54.5h12.9C493.1,106.8,496.9,110.9,496.9,119.3z M479.9,114.6V129h3.3c3.2,0,5.1-1.4,5.1-5.8v-3c0-3.9-1.3-5.6-4.4-5.6H479.9z
		 M479.9,136.7v16.7h4.9c2.9,0,4.4-1.3,4.4-5.4v-4.8c0-5.1-1.6-6.6-5.5-6.6H479.9z"/>
	<path class="st2" d="M514.5,106.1c8.3,0,12.6,5,12.6,13.7v1.7H519v-2.3c0-3.9-1.6-5.4-4.3-5.4s-4.3,1.5-4.3,5.4
		c0,4,1.7,6.9,7.3,11.8c7.2,6.3,9.4,10.8,9.4,17.1c0,8.7-4.4,13.7-12.8,13.7s-12.8-5-12.8-13.7v-3.3h8.1v3.9c0,3.9,1.7,5.3,4.4,5.3
		s4.4-1.4,4.4-5.3c0-4-1.7-6.9-7.3-11.8c-7.2-6.3-9.4-10.8-9.4-17.1C501.8,111.1,506.1,106.1,514.5,106.1z"/>
	<path class="st2" d="M556.9,140.9v7.2c0,8.7-4.4,13.7-12.8,13.7s-12.8-5-12.8-13.7v-28.3c0-8.7,4.4-13.7,12.8-13.7
		s12.8,5,12.8,13.7v5.3h-8.1v-5.8c0-3.9-1.7-5.4-4.4-5.4s-4.4,1.5-4.4,5.4v29.4c0,3.9,1.7,5.3,4.4,5.3s4.4-1.4,4.4-5.3v-7.8H556.9z"
		/>
	<path class="st2" d="M570.7,161.3h-8.6v-54.5h8.6v23.4h9.7v-23.4h8.7v54.5h-8.7v-23.4h-9.7V161.3z"/>
	<path class="st2" d="M595.4,106.8h8.6v46.7H618v7.8h-22.7V106.8z"/>
	<path class="st2" d="M629.9,106.8v42c0,3.9,1.7,5.3,4.4,5.3c2.7,0,4.4-1.4,4.4-5.3v-42h8.1v41.5c0,8.7-4.4,13.7-12.8,13.7
		s-12.8-5-12.8-13.7v-41.5H629.9z"/>
	<path class="st2" d="M664.3,106.1c8.3,0,12.6,5,12.6,13.7v1.7h-8.1v-2.3c0-3.9-1.6-5.4-4.3-5.4c-2.7,0-4.3,1.5-4.3,5.4
		c0,4,1.7,6.9,7.3,11.8c7.2,6.3,9.4,10.8,9.4,17.1c0,8.7-4.4,13.7-12.8,13.7c-8.4,0-12.8-5-12.8-13.7v-3.3h8.1v3.9
		c0,3.9,1.7,5.3,4.4,5.3s4.4-1.4,4.4-5.3c0-4-1.7-6.9-7.3-11.8c-7.2-6.3-9.4-10.8-9.4-17.1C651.7,111.1,655.9,106.1,664.3,106.1z"/>
	<path class="st2" d="M693.4,106.1c8.3,0,12.6,5,12.6,13.7v1.7h-8.1v-2.3c0-3.9-1.6-5.4-4.3-5.4c-2.7,0-4.3,1.5-4.3,5.4
		c0,4,1.7,6.9,7.3,11.8c7.2,6.3,9.4,10.8,9.4,17.1c0,8.7-4.4,13.7-12.8,13.7c-8.4,0-12.8-5-12.8-13.7v-3.3h8.1v3.9
		c0,3.9,1.7,5.3,4.4,5.3s4.4-1.4,4.4-5.3c0-4-1.7-6.9-7.3-11.8c-7.2-6.3-9.4-10.8-9.4-17.1C680.8,111.1,685.1,106.1,693.4,106.1z"/>
</g>
<g class="st1">
	<path class="st2" d="M278.8,426.4c6.6,0,8.1-3.2,9.4-6.9h5.8V474h-8.6v-41.6h-6.6V426.4z"/>
	<path class="st2" d="M303.6,432.6c0-8.7,4.6-13.7,13-13.7c8.4,0,13,5,13,13.7v28.3c0,8.7-4.6,13.7-13,13.7c-8.4,0-13-5-13-13.7
		V432.6z M312.2,461.5c0,3.9,1.7,5.4,4.4,5.4c2.7,0,4.4-1.5,4.4-5.4V432c0-3.9-1.7-5.4-4.4-5.4c-2.7,0-4.4,1.5-4.4,5.4V461.5z"/>
	<path class="st2" d="M358.7,418.9c8.3,0,12.6,5,12.6,13.7v1.7h-8.1V432c0-3.9-1.6-5.4-4.3-5.4c-2.7,0-4.3,1.5-4.3,5.4
		c0,4,1.7,6.9,7.3,11.8c7.2,6.3,9.4,10.8,9.4,17.1c0,8.7-4.4,13.7-12.8,13.7c-8.4,0-12.8-5-12.8-13.7v-3.3h8.1v3.9
		c0,3.9,1.7,5.3,4.4,5.3c2.7,0,4.4-1.4,4.4-5.3c0-4-1.7-6.9-7.3-11.8c-7.2-6.3-9.4-10.8-9.4-17.1
		C346.1,423.9,350.4,418.9,358.7,418.9z"/>
	<path class="st2" d="M373.8,419.5h26.5v7.8h-9V474h-8.6v-46.7h-9V419.5z"/>
	<path class="st2" d="M428.8,474h-8.6l-1.5-9.9h-10.5l-1.5,9.9h-7.9l8.7-54.5h12.5L428.8,474z M409.3,456.7h8.3l-4-27.6h-0.2
		L409.3,456.7z"/>
	<path class="st2" d="M441.3,443.7h11.1v7.8h-11.1V474h-8.6v-54.5h22.7v7.8h-14.1V443.7z"/>
	<path class="st2" d="M468.1,443.7h11.1v7.8h-11.1V474h-8.6v-54.5h22.7v7.8h-14.1V443.7z"/>
	<path class="st2" d="M494.9,442.5h11.8v7.8h-11.8v16h14.8v7.8h-23.4v-54.5h23.4v7.8h-14.8V442.5z"/>
	<path class="st2" d="M515,419.5h8.6v46.7h14.1v7.8H515V419.5z"/>
	<path class="st2" d="M549.2,434.5H549V474h-7.7v-54.5h10.7l8.6,32.6h0.2v-32.6h7.6V474h-8.8L549.2,434.5z"/>
</g>
</svg>
