<?xml version="1.0" encoding="utf-8"?>
<!-- Generator: Adobe Illustrator 22.0.1, SVG Export Plug-In . SVG Version: 6.00 Build 0)  -->
<svg version="1.1" id="Ebene_1" xmlns="http://www.w3.org/2000/svg" xmlns:xlink="http://www.w3.org/1999/xlink" x="0px" y="0px"
	 viewBox="0 0 841.9 1190.6" style="enable-background:new 0 0 841.9 1190.6;" xml:space="preserve">
<style type="text/css">
	.st0{fill:#E5281F;}
</style>
<g>
	<g>
		<path class="st0" d="M147.4,85.2c-0.2,0-0.3,0-0.5,0c-3.6,30.9-7.1,61.9-10.6,92.8c-13.2,2.6-26.4,5.3-39.6,8.2
			C89.8,126.1,83,65.9,76.3,5.7c9.4,0,18.9,0,28.3-0.1c4.9,46.2,9.9,92.4,15,138.5c0.2,0,0.3-0.1,0.5-0.1
			c4.6-46.2,9.3-92.4,14.1-138.5c9.3,0,18.7,0,28-0.1c4.5,43.8,9,87.6,13.6,131.3c0.2,0,0.3,0,0.5-0.1
			c5.1-43.8,10.2-87.5,15.5-131.3c10.2,0,15.2,0,25.4,0c-7.3,54.1-14.5,108.1-21.5,162.2c-12.9,2-25.7,4.1-38.5,6.4
			C154,144.4,150.7,114.8,147.4,85.2z"/>
		<path class="st0" d="M260.6,70.3c13.3-0.6,26.7-1.2,40-1.6c0,8.6-0.1,12.9-0.1,21.5c-13.3,0.6-26.7,1.3-40,2.1
			c-0.1,15-0.2,30.1-0.2,45.1c16.8-1.5,33.6-2.9,50.4-3.9c0,8.5-0.1,12.8-0.1,21.3c-26.6,2.1-53.1,4.7-79.6,8
			c0.3-52.4,0.6-104.9,0.9-157.3c26.5,0,52.9-0.1,79.4-0.1c0,8.5-0.1,12.8-0.1,21.3c-16.8,0.2-33.5,0.4-50.3,0.7
			C260.8,41.7,260.7,56,260.6,70.3z"/>
		<path class="st0" d="M372.7,70c13.6-0.2,27.2-0.3,40.9-0.3c0,15.4,0,30.8,0,46.1c0.4,25.3-21.1,36.6-43.7,37.4
			c-22.7,0.8-44-9.7-43.5-35.2c0.1-25.7,0.2-51.4,0.3-77.2c-0.3-25.3,20.5-37.3,43.5-37.3c22.6,0,43.8,11.5,43.4,36.6
			c0,5.7,0,8.5,0,14.1c-11,0-16.5,0-27.6,0.1c0-6.3,0-9.4,0-15.6c0-10.4-5.8-14.4-15.1-14.3c-9.3,0-15.1,4.1-15.1,14.6
			c-0.1,26.4-0.2,52.9-0.2,79.3c0,10.5,5.8,14,15.1,13.8c9.3-0.3,15.2-4.1,15.2-14.5c0-10.8,0-16.1,0-26.9c-5.3,0.1-8,0.1-13.3,0.2
			C372.7,82.6,372.7,78.4,372.7,70z"/>
		<path class="st0" d="M461.6,70.2c12.6,0.2,25.1,0.4,37.7,0.7c0,8.4,0,12.7,0.1,21.1c-12.6-0.4-25.1-0.7-37.7-0.9
			c0,20.1,0.1,40.2,0.1,60.3c-9.8-0.3-19.5-0.5-29.3-0.5c0-48.5-0.1-97-0.1-145.5c25.7,0,51.3,0,77,0c0,8.5,0,12.7,0.1,21.2
			c-16-0.2-32-0.3-47.9-0.3C461.6,40.8,461.6,55.5,461.6,70.2z"/>
		<path class="st0" d="M523.4,5.3c9.7,0,19.4,0,29.1,0c0.2,43.3,0.4,86.5,0.7,129.8c16,1.3,32,2.7,48,4.4c0.1,8.9,0.1,13.4,0.1,22.4
			c-25.7-3.1-51.4-5.6-77.2-7.5C523.8,104.7,523.6,55,523.4,5.3z"/>
		<path class="st0" d="M613.1,5.4c9.7,0,19.4,0,29.1,0c0.3,54.1,0.6,108.1,0.9,162.2c-9.7-1.5-19.4-2.9-29.1-4.1
			C613.7,110.8,613.4,58.1,613.1,5.4z"/>
		<path class="st0" d="M760.4,5.7c-9.8,28.9-19.9,57.7-30.2,86.4c11.2,32.8,22,65.7,32.3,98.8c-10.1-2.4-20.2-4.7-30.3-6.9
			c-7.7-24.6-15.5-49.1-23.6-73.5c-0.2,0-0.3,0-0.5-0.1c-7.7,21.4-15.5,42.8-23.4,64.2c-10.8-2-16.3-2.9-27.1-4.7
			c10.9-27.2,21.6-54.4,32-81.8c-10-27.6-20.2-55.2-30.8-82.6c10.1,0,20.1,0,30.2,0.1c7.4,21.4,14.7,42.8,21.9,64.2
			c0.2,0,0.3,0,0.5,0c7.5-21.3,14.8-42.7,22-64.1C744.2,5.7,749.6,5.7,760.4,5.7z"/>
	</g>
</g>
</svg>
