<?xml version="1.0" encoding="utf-8"?>
<!-- Generator: Adobe Illustrator 22.0.1, SVG Export Plug-In . SVG Version: 6.00 Build 0)  -->
<svg version="1.1" id="Ebene_1" xmlns="http://www.w3.org/2000/svg" xmlns:xlink="http://www.w3.org/1999/xlink" x="0px" y="0px"
	 viewBox="0 0 595.3 841.9" style="enable-background:new 0 0 595.3 841.9;" xml:space="preserve">
<style type="text/css">
	.st0{fill:#E94F1C;}
</style>
<g>
	<g id="l5Azcd.tif">
		<g>
			<g>
				<path class="st0" d="M129.7,289.3c36,8.4,72.7,12.2,106,29.1c0.4-0.5,0.8-0.9,1.2-1.4c-0.7-1.5-0.9-3.6-2.1-4.3
					c-4.2-2.7-8.5-5.7-13.1-7.2c-38.1-12.5-74.1-30.1-110.7-46.2c-1.9-0.8-3.6-2.2-5.1-3.7c-11.3-11.1-22.6-22.3-33.7-33.6
					c-1.8-1.8-3.2-4.3-4.1-6.7c-9.6-26-16.7-52.6-21.2-80c-1-6.2-5.3-12.6-9.6-17.5c-9.5-10.8-7.3-23.9-8.5-36.3
					c0-0.5,0.3-1.1,0.6-1.6c0.2-0.3,0.6-0.4,1.3-0.8c9.5,9,10.3,25.3,25.2,30.5c0-4-0.4-7.7,0.1-11.3c0.5-3.4,2-6.7,3.1-10.1
					c0.5,0,1,0.1,1.4,0.1c2.5,6.9,4.9,13.8,7.4,20.9c13.4-5.9,20.2-16.6,28.2-25.9c4.4-5.1,10.1-5.5,16.7-6.9
					c-8.4,18.5-16.4,36.1-24.3,53.4c5.9,4.9,20.6,5.5,26.2,1.5c4.6-3.2,9-6.6,13.7-9.8c1-0.7,2.6-0.5,4-0.7c-0.1,1.2,0,2.6-0.5,3.7
					c-3.5,7.7-7.1,15.4-10.9,23.1c-0.8,1.7-2.2,3.1-3.6,4.4c-4.1,3.8-8.1,7.8-12.6,11.1c-7.6,5.5-11.9,12.5-13,22
					c-0.5,5-0.5,9.2,2.2,13.6c6,9.7,11.4,19.8,17.2,29.6c1,1.7,2.5,3.7,4.2,4.5c18.1,8.3,36.2,16.3,55.7,25c-1.2-1.6-1.5-2.3-2-2.5
					c-16.3-9-14.6-25.9-17.5-40.6c-0.8-4.2,2.5-9.2,3.7-13.8c2.2-8.7,4.1-17.4,6.2-26.6c0.3,0.2,1.9,0.6,2.1,1.3
					c1.5,5.5,3.5,11,3.7,16.6c0.3,7.9-0.9,15.8-1.1,23.8c0,1.9,1.1,4,2.1,5.7c9.7,17.3,24.6,29.5,40.8,40.3c4.5,3,8.7,6.4,13.8,9
					c-4.4-5.4-8.5-11-13.2-16.1c-6-6.4-8.8-14.1-11.7-22.2c-4.8-13.3-4-25.2,2.6-37.6c5.5-10.3,9.4-21.2,8.4-33.3
					c-0.1-1.2,0.6-2.5,1-3.8c0.9,0.2,1.8,0.2,2,0.5c3.8,8.6,9.9,16.8,5.4,27.2c-1.5,3.5-1.5,7.7-3.1,11.1
					c-8.6,17.9,1.4,31.4,10.4,45c3.6,5.5,8.7,9.9,12.7,15.1c10.1,12.9,20,25.9,30.4,39.5c0.1-0.1,1.6-1.2,3.2-1.3
					c2.4-0.1,4.8,0.3,7.1,0.9c3.4,0.9,6.5,3,9.9,3.3c6,0.5,12-0.1,18,0.2c5.2,0.2,9.7-0.5,14-4.1c1.6-1.4,5.1-0.6,7.8,0.1
					c0.3-0.2,0.8-0.3,1-0.6c9.7-19.3,24.1-35,38.4-50.7c8.2-9,11.8-20.3,17-30.8c0.8-1.6,0.1-4.1-0.4-6.1
					c-2.5-9.7-5.3-19.4-7.9-29.1c-1.2-4.4,4.4-18.6,8.9-22c0.3,1.9,0.8,3.5,0.8,5.1c0.3,9.3,1.2,18.6,6.1,26.8
					c9.4,15.6,10.8,31.6,3.1,48.2c-1.9,4.1-3.5,8.5-6.2,12.1c-5,6.8-10.7,13.2-15.6,20.5c1-0.5,2-1,2.9-1.6c5.5-4,10.6-8.5,16.4-12
					c14.5-8.7,25-21.1,33.8-35.2c1.3-2.1,2.1-5,2.1-7.4c-0.1-8.5-1.4-17-1-25.5c0.2-5.2,2.7-10.3,4.1-15.5c0.7,0.1,1.4,0.2,2.1,0.3
					c0.5,1.1,1.6,2.2,1.4,3.3c-1.2,11.5,4.1,21.5,6.8,32.1c0.9,3.6,0.7,7.5,0.6,11.2c-0.1,2.5-0.9,4.9-1.4,7.4
					c-2.1,11.5-3.7,23.3-17.8,28c0.5,0.4,1,0.9,1.5,1.3c1.1-0.3,2.2-0.5,3.2-1c16.6-7.4,33.2-14.7,49.7-22.3c2.3-1,4.4-3.1,5.7-5.2
					c6-9.9,11.5-20.1,17.5-30.1c2.3-3.8,2.9-7.3,2.2-11.9c-1.4-9.9-5-18-13.6-23.5c-14.2-9-20.4-23.7-26.7-38.3
					c-0.5-1.2-0.5-2.7-0.8-4.1c0.4-0.4,0.9-0.7,1.3-1.1c4.8,3.4,9.8,6.6,14.3,10.4c6.9,5.7,15.1,4.2,22.8,4c3.3-0.1,6.2-2.6,3.8-7.4
					c-7.2-14.7-13.9-29.7-20.8-44.6c-0.6-1.2-1.1-2.4-1.6-3.6c4.8-1.7,12.4,0.7,16.1,4.6c7.9,8.4,14,18.6,24.5,24.4
					c0.8,0.5,1.6,1,2.4,1.4c7.3-4.7,6.1-13.3,9.2-21.7c4.7,7.8,6.8,14.4,4.4,22.6c15.6-4.8,16-21.7,27.1-31.6c0,4.8-0.1,8.1,0,11.4
					c0.6,11.4-1.9,21.9-9.7,30.6c-9.7,10.9-9.1,25-12.6,37.9c-5.4,20.1-11.4,40.1-17.4,60c-0.6,2-2.6,3.8-4.2,5.4
					c-11,10.9-22,21.8-33.1,32.6c-1.8,1.7-3.9,3.2-6.2,4.2c-36.6,16.2-72.6,33.7-110.7,46.1c-2.5,0.8-4.7,2.6-7.2,3.7
					c-4.9,2.1-5.5,5.3-2.6,10.3c33-17,69.8-20.5,105.2-29c0.3,0.5,0.7,1,1,1.6c-0.7,1.7-1.4,3.4-2.2,5c-3.2,5.8-6.8,11.3-9.5,17.3
					c-7.4,16.1-18.3,29.3-32.4,40.1c-5.4,4.1-10.5,6.3-17.1,6.9c-11.1,1-22.2,3-33.3,4.4c-3.5,0.4-4.6,2.5-5.7,5.5
					c-2.1,6-4.8,11.7-7,17.6c-0.7,1.9-1,4.1-0.8,6.1c2.2,15.1,4.5,30.2,6.9,45.3c0.4,2.8,0.9,5.9,2.3,8.3
					c11.7,19.9,17.8,41.6,20.7,64.4c0.6,5.2,2.4,10.2,3,15.4c0.4,3.1,0.3,6.6-0.8,9.5c-4.1,10.4-8.5,20.7-13.1,31
					c-1.1,2.6-2.9,5-4.9,7c-24,23.9-48.2,47.6-72.2,71.6c-3.3,3.3-5.2,3.7-8.8,0.2c-24.2-24.2-48.7-48.2-73-72.3
					c-1.9-1.8-3.3-4.3-4.4-6.7c-4.3-9.7-8.7-19.4-12.4-29.4c-1.4-3.7-1.6-8.2-1.1-12.2c1.9-13.9,4.4-27.8,6.8-41.7
					c0.2-1.1,0.5-2.3,0.8-3.4c0.2-0.7,0.6-1.4,1-2.1c14.7-24.6,20.4-51.8,24.5-79.7c0.9-6.3,1.9-12.1-2.8-17.4
					c-0.9-1.1-1.4-2.9-1.5-4.3c-0.5-11.6-8.5-14-17.9-15c-9.6-1-19.3-1.7-28.9-2.9c-2.5-0.3-5.2-1.5-7.2-3
					c-7.2-5.9-14.1-12.1-21.2-18.1c-0.9-0.8-1.9-1.5-2.5-2.4c-8-14.3-16-28.7-24-43.1C129.4,292.1,129.7,291.3,129.7,289.3z
					 M291.1,640.8c0.7-0.5,1.3-1,2-1.5c-13-46.9-26.1-93.7-39.3-141.3c-1,1.4-1.5,1.9-1.8,2.6c-9.7,22.1-19.3,44.2-29.2,66.2
					c-1.4,3.1-0.1,4.5,1.8,6.3c13.6,13.4,27.3,26.8,40.8,40.4C274.1,622.3,282.5,631.6,291.1,640.8z M302.3,639.1
					c1.6-0.8,2-0.9,2.2-1.1c22.2-21.9,44.3-43.8,66.6-65.6c2.3-2.3,1.8-4.1,0.8-6.6c-7.1-16.7-14.1-33.5-21.2-50.2
					c-2.6-6.1-5.1-12.2-8.4-20C328.7,544.3,315.6,591.3,302.3,639.1z M299.6,474.6c0,52.9,0,104.7,0,158.2c1-2.4,1.4-3.2,1.6-4.1
					c12.6-45.2,25.1-90.4,37.7-135.6c0.4-1.3,1-2.8,0.5-3.9c-4.1-10.2-8.4-20.4-12.8-30.7C317.5,464.7,314.1,478.5,299.6,474.6z
					 M270.4,458.6c-4.1,9.4-8.5,18.6-12.2,28.1c-1.1,2.8-1.4,6.4-0.6,9.3c11.9,43.6,24,87.1,36.1,130.7c0.2,0.9,0.9,1.7,1.6,2.8
					c0-51.8,0-103,0-154.5C281.9,477,279.4,463.5,270.4,458.6z M218.9,564.6c0.9-1.1,1.2-1.3,1.4-1.6
					c15.3-34.8,30.6-69.6,45.9-104.3c1.3-2.9,0.9-4.8-1.9-6.1c-4.9-2.4-5.8-6.4-5.8-11.4c0-3.7-1.4-7.4-2.4-11.7
					c-1.3,1.1-1.7,1.3-1.8,1.6c-16,32.8-32,65.5-47.9,98.4c-0.7,1.4-1,3.4-0.4,4.8C210.1,544.2,214.4,554.1,218.9,564.6z
					 M375.8,565.3c4.8-11.4,9.2-21.3,13.1-31.3c0.6-1.4,0-3.7-0.8-5.3c-14.9-31.2-29.8-62.3-44.8-93.5c-0.6-1.2-1.5-2.3-2.5-3.9
					c-4.7,8.1,1.8,20.4-11.7,23C344.8,491.6,360.1,527.8,375.8,565.3z M223.7,359.8c-6.3-8.3-12.3-16.4-18.6-24.1
					c-2.4-2.9-5.4-5.5-8.7-7.3c-11.5-6.4-23.2-12.3-34.8-18.5c-8-4.2-15.9-8.4-23.9-12.5c5.8,12.5,12.4,24.2,19,35.9
					c0.6,1,1.6,1.7,2.5,2.4c6.7,5.8,13.4,11.7,20.2,17.4c1.4,1.2,3.3,2.2,5,2.4C197.3,357,210.1,358.3,223.7,359.8z M373.6,359.7
					c13.7-1.4,26.9-2.8,40-4.3c1.4-0.2,2.7-1.3,3.9-2.2c15-11.3,27.9-24.3,35.3-41.9c1.9-4.6,4.7-8.9,7.9-14.7
					c-22.1,11.7-42.5,22.6-63,33.5c-0.8,0.4-1.7,1-2.3,1.7C388.3,341,381.1,350.2,373.6,359.7z M283.9,303.6c0,2.1-0.1,3.8,0,5.5
					c0.9,17.5,2.5,35.1,2.5,52.6c0,10.1,3.5,16.9,12.2,21.5c9.1-6.6,9.7-7.5,10.3-18.1c0.1-1.5,0.3-3.1,0.4-4.6
					c1.2-18.8,2.5-37.7,3.7-56.9C303.2,303.6,293.8,303.6,283.9,303.6z M329.4,364c6.1-4.6,11.6-8.5,16.8-12.9c1.6-1.4,3-4,3-6.1
					c0.3-8.5,0.3-16.8,6.7-23.8c2.7-3,1.3-6.5-2.5-8.4c-9-4.4-18-8.9-27.1-13.2c-4.3-2-9.1,0.7-9.5,5.4c-0.9,12.1-1.7,24.3-2.4,36.4
					c-0.1,1.6,0.3,3.6,1.2,4.8C320,352.2,324.6,357.9,329.4,364z M267.2,364.1c4.7-6,9.2-11.7,13.6-17.6c0.7-1,1.1-2.5,1-3.7
					c-0.6-12.7-1.3-25.4-2.2-38.1c-0.3-4.4-4.7-6.8-8.6-5c-9,4.3-18,8.7-27,13.1c-4.4,2.2-5.6,6.2-2.7,9.4
					c6.1,6.6,5.6,14.4,5.9,22.2c0.1,2.1,0.8,4.8,2.2,6C255,355.1,260.9,359.3,267.2,364.1z M367.4,361.3c7.8-10,15.2-19.7,22.9-29.1
					c2.1-2.6,4.9-5,7.8-6.6c15.8-8.6,31.7-16.9,47.6-25.4c1.2-0.6,2.3-1.4,4.5-2.8c-31.1,5.5-60.5,11.8-88.1,24.6
					c-1.5,0.7-2.7,2-3.9,3.2c-6.4,6.4-4.2,14.8-4.9,22.5c-0.1,1,1.2,2.3,2.2,3.2C359.2,354.3,363,357.5,367.4,361.3z M228.8,360
					c11.4-5.6,17.4-13.4,13.9-26c-0.1-0.2,0-0.4,0-0.6c-2.8-3.9-4.8-9.8-8.6-11.4c-16.6-7.2-33.3-14.5-51.4-17.5
					c-11.4-1.9-22.7-4.7-34.1-7.1c0.7,1.4,1.7,2,2.7,2.5c15.7,8.3,31.6,16.5,47.1,25c3.7,2.1,7.2,5.1,9.9,8.4
					C215.4,342,222,351.1,228.8,360z M318,404.9c11.8,4.2,17,12.9,18.4,25.3c6.1-14.5,11.7-27.6,17.5-41.5
					c-2.6-3.2-5.8-7.5-9.5-11.5c-4.4-4.8-9.1-4-12.2,1.6C327.7,387,323.2,395.3,318,404.9z M357.5,308.3c4.8-3.5,8.7-5.9,12-8.9
					c9.5-8.7,18.4-18.3,28.4-26.4c8-6.5,8.7-15,10.7-24.7c-17.1,12.6-33.2,24.5-49.3,36.4c-0.8,0.6-1.7,1.8-1.7,2.7
					C357.4,293.9,357.5,300.3,357.5,308.3z M186.2,249.9c1.8,9.9,2.7,18.2,10.4,24.5c10.1,8.3,19.2,18,28.9,26.8
					c3.2,2.9,7,5.2,11.5,8.4c0-7.7,0.1-14.1-0.1-20.4c0-1.1-0.9-2.6-1.8-3.3C219.2,274.2,203.4,262.6,186.2,249.9z M259.9,427.7
					c0.6-11.8,6.8-19.4,17.9-23.7c-5.2-9.7-9.9-18.8-14.9-27.6c-0.7-1.2-4-2.4-4.9-1.8c-5.9,4-11.4,8.5-16,12.1
					C248.4,401.4,254.1,414.6,259.9,427.7z M465.5,242.8c-0.2-0.3-0.3-0.5-0.5-0.8c-10.3,4.6-20.4,9.7-30.9,13.6
					c-17,6.3-31.5,15.9-43.6,29.4c-3.7,4.1-8.1,7.7-12.1,11.6c15.1-4.8,30.3-8,42.6-18.8C435.2,265.4,450.6,254.4,465.5,242.8z
					 M215.4,298.2c-15.2-13.8-27.4-31-48-38c-11.6-4-22.6-9.9-33.9-14.9c-1-0.5-2.2-0.7-3.3-1c14.9,12.6,30.6,24,45.3,36.5
					C187.1,290.7,201.6,293.3,215.4,298.2z M111.1,153.6c-0.5-0.5-0.9-1-1.4-1.5c-12.7,2.4-25.4,4.7-38,7.4
					c-1.2,0.3-2.7,2.9-2.7,4.4c0.6,10.4,1.5,20.8,2.4,31.2c0.3,3.9,0.6,7.8,0.9,11.7C83.6,187.6,89.2,165.1,111.1,153.6z M485,150.6
					c-0.1,0.4-0.2,0.9-0.3,1.3c2.6,2.3,5.1,4.7,7.8,6.8c6.8,5.5,12.5,11.7,16,20c3.8,9.2,8.5,17.9,12.9,26.8
					c0.4-0.1,0.7-0.2,1.1-0.3c1.2-15.6,2.4-31.2,3.6-46.9C511.8,155.8,498.4,153.2,485,150.6z M309,379.5c-3.9,3.6-6.9,6.5-10.3,9.6
					c-3.9-3.3-7.6-6.3-12-10.1c-1.4,7.9-2.8,15-3.9,22.1c-0.3,1.7,0.4,3.7,0.8,5.5c2.4,9.1,9.1,10.2,17.2,9.5
					c6-0.5,13.1-7.7,12.4-13.6C312.2,395.2,310.5,387.9,309,379.5z M275.7,433.8c3.3,0,7.2-1,10,0.3c2.6,1.3,4,5,6.2,8
					c4.1,0,9.1,0,12.3,0c2.3-3.4,3.5-7.1,5.8-8c2.9-1.2,6.7-0.3,10.6-0.3c-0.4-3.4-0.6-6.4-1.1-9.4c-1.2-7-6.4-9.3-12.4-5.6
					c-1.4,0.8-3.2,1.3-4.9,1.4c-6.6,0.1-13.6,1.5-18.4-4.4C273.9,421.6,273.9,421.6,275.7,433.8z M99.1,215.5
					c-0.3,0.2-0.5,0.4-0.8,0.6c3.9,11.7,7.6,23.4,11.7,35c0.8,2.3,3.1,4.8,5.4,5.9c15,7,30.3,13.7,45.4,20.4c1.4,0.6,3,1.1,4.5,1.6
					c-1-2.1-2.4-3.3-3.9-4.5c-11.3-8.8-22.3-18-34-26.3c-11.6-8.2-21.3-17.7-27-30.9C100.1,216.6,99.5,216,99.1,215.5z M496.7,213.6
					c-0.3-0.1-0.6-0.3-0.9-0.4c-1.9,3.2-4.1,6.4-5.7,9.7c-3.5,7.4-8.8,12.9-15.3,17.7c-14.5,10.9-28.7,22.2-43,33.4
					c-1.2,0.9-2.2,2-3.3,3c18-6.9,35.4-14.6,52.8-22.4c1.1-0.5,2.2-1.6,2.6-2.7C488.3,239.1,492.5,226.3,496.7,213.6z M333.9,439.1
					c-5.3-1.2-10.4-1.5-15.4,1.7c-3.5,2.2-7.5,4.8-11.5,5.1c-10.3,0.8-20.9,1.6-29.9-5.7c-4.4-3.6-9.3-2.6-14.1-1.2
					c-0.6,8,3.6,13.3,10.7,13.3c16.6,0.1,33.3,0.1,49.9-0.1C330.9,452.2,334.9,446.8,333.9,439.1z M103.5,247.6
					c0.3-0.2,0.6-0.4,0.9-0.6c-6-18.1-12-36.3-18.1-54.4c-0.5,0.1-1.1,0.1-1.6,0.2c-3.9,8.1-7.9,16.2-11.6,23.9
					C83.5,227.2,93.5,237.4,103.5,247.6z M490.1,245.7c0.4,0.4,0.8,0.7,1.2,1.1c9.6-9.7,19.2-19.4,28.7-29.3
					c0.7-0.8,1.2-2.6,0.8-3.5c-3.5-7.6-7.3-15.1-11-22.6c-0.6,0-1.2,0-1.7,0C502.2,209.5,496.2,227.6,490.1,245.7z M524.7,150.7
					c-4.8-16.8-9-31.9-13.4-47c-0.4-1.4-1.5-2.7-2.5-3.8c-4.4-5.2-8.7-10.3-13.3-15.3c-1.6-1.7-4-2.8-6.5-4.6
					c6.4,14.8,12.2,28.5,18.2,42.2c2.2,4.9,5,9.7-3.2,12.6C511,140.1,517.1,144.8,524.7,150.7z M105.2,82.1
					c-1.4,0.6-3.3,0.8-4.1,1.8c-7.7,9.7-18.1,17.3-20.8,30.7c-2.4,12.2-6.6,24-10.5,37.5c7.6-5.8,13.9-10.6,20.9-15.9
					c-7.5-2.4-6.1-6.5-3.9-11.5C93.1,110.7,99,96.7,105.2,82.1z M529.6,151.1c8.9-13.6,17.6-26.8,26.3-40c5.2-7.9,6-11.3,5.2-19.6
					c-8.5,10.4-16.8,22.5-27.1,32.7c-8.2,8.1-10.4,15.7-5.4,25.7C528.7,150.1,528.8,150.2,529.6,151.1z M65.4,153.2
					c1.1-3.9,1.6-6.8,2.8-9.4c2.5-5.2,0.7-8.7-3-12.7c-11.4-12.1-23.2-23.9-30.7-39c-0.1-0.2-0.6-0.2-1.8-0.5
					c0.7,5.2-0.1,10.9,2.3,14.8C44.4,122,54.7,137,65.4,153.2z M208.9,514.1c0.8-0.9,1.1-1.1,1.2-1.4c14.1-28.8,28.2-57.5,42.1-86.3
					c0.8-1.7,0.3-4,0.4-6c-0.5-0.1-1-0.1-1.5-0.2c-1,1.8-2,3.6-3,5.5c-9.4,18-18.3,36.2-28.2,53.9
					C214,490.1,210.7,501.3,208.9,514.1z M275.4,456.6c14.8,22.6,36.7,17.4,45.6,0C306,456.6,291.1,456.6,275.4,456.6z M317,398.4
					c4.6-8.4,8.8-16,12.8-23.6c0.5-0.9,0.8-2.5,0.3-3.1c-5.1-6.8-10.3-13.4-16-20.8C311.5,367.4,312,382.5,317,398.4z M386.2,514.9
					c-1.7-13.1-4.9-24-10.4-34.4c-10.4-19.5-20.2-39.4-30.3-59.1c-0.6,0.2-1.3,0.3-1.9,0.5c0.5,2.6,0.6,5.5,1.7,7.9
					c11.8,24.9,23.8,49.8,35.8,74.6C382.4,507.5,384,510.5,386.2,514.9z M520,153.4c0.2-0.3,0.3-0.6,0.5-0.9
					c-5.3-4.1-10.3-8.4-15.8-12.1c-3.1-2-6.9-4.1-10.4-4c-9.1,0.2-17-2.1-23.7-8.4c-0.1-0.1-0.6,0.2-1.1,0.4
					c2.2,4.7,4.3,9.5,6.7,14.1c0.7,1.3,2.3,2.8,3.7,3.1C493.2,148.3,506.6,150.8,520,153.4z M125.1,129.9
					c-6.7,4.7-13.3,8.2-21.6,7.7c-13.2-0.8-19.5,10.3-28.7,16.6c13.7-2,27.2-4.5,40.6-7.2c1.1-0.2,2.3-1.5,2.8-2.6
					C120.6,139.6,122.8,134.8,125.1,129.9z M366.5,250.8c-2.1,2.5-4,5.2-6.4,7.3c-12.4,10.9-18.2,23.8-14.7,40.8
					c1.2,5.7,3,7.9,9.2,8.6C349.5,286.4,360.3,269.3,366.5,250.8z M228.2,252.3c6.1,18.6,17.1,35.7,12.1,56.9c6.4-1.2,9.3-3.4,9.1-9
					c-0.2-6.3,0.3-12.7,0.4-19.1c0-1.6-0.1-3.7-1.1-4.8C241.9,268.2,235,260.3,228.2,252.3z M281.7,351.9c-5.4,6.9-10.3,13-15,19.3
					c-0.5,0.7-0.7,2.3-0.3,3.1c3.9,7.6,8,15.1,12.6,23.5C283.1,382.1,284.5,367.6,281.7,351.9z M230.8,274.3
					c0.4-0.2,0.7-0.4,1.1-0.6c-7.3-17.1-14.7-34.2-22-51.3c-0.5,0.1-1,0.3-1.5,0.4c-0.9,6.3-1.9,12.5-2.7,18.8
					c-0.1,1.1,0.5,2.6,1.3,3.6C214.9,255,222.9,264.6,230.8,274.3z M362.9,271.8c0.4,0.2,0.7,0.5,1.1,0.7
					c7.8-9.6,15.7-19.1,23.4-28.7c0.9-1.2,1.4-3.2,1.2-4.8c-0.7-6-1.6-12-2.5-18.1c-0.4-0.1-0.9-0.2-1.3-0.3
					C377.6,237.7,370.2,254.7,362.9,271.8z M429.4,223.1c-8.9,11.8-18.9,21.9-18.6,37.9c7.1-5.9,13.9-11.5,20.5-17.3
					c0.8-0.7,1.5-2.4,1.4-3.4C431.8,234.8,430.6,229.4,429.4,223.1z M165,225.2c-1,5.6-2.1,10.5-2.8,15.4c-0.2,1.5,0.1,3.7,1.1,4.6
					c6.6,5.8,13.4,11.4,20.5,17.3C183.5,249.8,176.7,236.4,165,225.2z M527,197.1c0.7,0.1,1.5,0.1,2.2,0.2
					c4.6-18.6,9.2-37.2,13.8-55.8c-0.7-0.3-1.5-0.5-2.2-0.8c-3.6,6.1-9.2,11.8-10.5,18.3C527.9,171.5,527.9,184.4,527,197.1z
					 M65.9,199.9c0.6-0.2,1.3-0.5,1.9-0.7c-1-11.5-2.3-23-2.8-34.6c-0.4-9.3-7.5-14.4-11-21.7c-0.8,0.3-1.5,0.6-2.3,0.8
					C56.4,162.5,61.1,181.2,65.9,199.9z M224.9,459.6c0.3,0.1,0.6,0.3,0.9,0.4c7.3-14,14.4-28,21.9-41.8c2.1-4,1.9-7.1-1.1-10.7
					C239.2,425.1,232.1,442.4,224.9,459.6z M383.7,190.4c2.9,14,5.6,26.7,8.5,40.3c1.3-4.4,2.5-8.2,3.4-12c0.6-2.4,1.7-5.4,0.7-7.2
					C392.7,204.6,388.4,198.1,383.7,190.4z M202.7,230.7c2.5-12,5.2-24.6,8-37.6C202.3,204.9,192.4,216,202.7,230.7z M365.8,452.9
					c0.3-0.1,0.6-0.3,0.9-0.4c-5.4-15-10.8-30-16.2-45c-2,3.1-4,6.6-2.9,8.8C353.3,428.7,359.7,440.7,365.8,452.9z M365.2,367.5
					c-8.5-1.2-12.7,3.3-17.1,8.1c2.9,3.5,5.7,6.8,9.6,11.4C360.5,379.8,362.8,373.9,365.2,367.5z M248.5,375.2
					c-5-4.2-8.5-9.6-16.3-7.6c2.1,5.8,4.2,11.4,6.5,17.9C242.6,381.5,245.3,378.5,248.5,375.2z M434.1,230
					c6.2-11.1,5.9-21.7-3.2-32.6C432.1,209.2,433.1,219.6,434.1,230z M160.2,233.8c1.3-12.4,2.4-23.1,3.7-35.6
					C154.7,209.9,154.2,220.8,160.2,233.8z M329.1,418.2c-6.9,1.8-7.7,6.2-3.3,16.1c2.4,0,4.9,0,7.9,0
					C332.1,428.7,330.6,423.4,329.1,418.2z M262.7,299.2c-2.9-4.9-5.5-9.4-8.1-13.9c-0.4,0.1-0.8,0.2-1.2,0.3c0,5.8,0,11.6,0,18
					C256.6,302.1,259.4,300.8,262.7,299.2z M263.3,433.4c0.3,0.6,0.6,1.1,0.9,1.7c2.3-1,5.9-1.5,6.8-3.2c2.4-4.9,0.1-11.5-4.3-13.7
					C265.6,423.3,264.5,428.4,263.3,433.4z M331.8,297.7c3.7,1.8,6.5,3.2,10,4.8c-0.3-6.7-0.6-12.4-0.8-18.2
					c-0.4-0.1-0.7-0.2-1.1-0.3C337.3,288.4,334.7,292.8,331.8,297.7z M240,394.6c-1.7,9.5-3.2,18.1-4.7,26.7
					C245.3,403.7,245.6,401.8,240,394.6z M523.6,130.4c5-5.5,9.5-10.6,14.1-15.7c-4.4,1.2-7.8,3.5-11.4,5.2
					C521.1,122.1,520.5,125.3,523.6,130.4z M70.8,131.6c0.6-0.1,1.2-0.3,1.7-0.4c-0.2-2.5,0.5-6.2-0.8-7.3c-4-3.3-8.8-5.5-13.3-8.2
					c-0.3,0.4-0.6,0.8-0.9,1.2C61.9,121.8,66.4,126.7,70.8,131.6z M264.7,367.1c-5.1-3.8-9.8-7.3-15-11.3c0.2,8.7,7,10.7,11.7,15
					C262.5,369.6,263.5,368.5,264.7,367.1z M346.6,355.9c-5.1,3.9-9.8,7.4-14.8,11.2c1.2,1.4,2.1,2.4,3.3,3.8
					C339.7,366.5,346.8,364.6,346.6,355.9z M247.2,362.7c-1.3-3.9-2.1-6.3-3.1-9.3c-3.8,3.2-6.9,5.8-10.1,8.5
					c0.2,0.6,0.5,1.2,0.7,1.7C238.6,363.3,242.4,363.1,247.2,362.7z M358.5,419c0.5-0.2,1-0.3,1.5-0.5c-1.2-7.3-2.3-14.7-3.5-22
					C349.9,405.2,358.1,411.4,358.5,419z M78.4,107.9c-4.8,3-8.4,5.3-12.4,7.7c3.2,1.8,5.8,3.3,8.8,5C76,116.4,77,112.8,78.4,107.9z
					 M361.7,363.8c0.2-0.6,0.4-1.2,0.5-1.8c-3.2-2.7-6.4-5.4-10-8.5c-0.9,3.3-1.6,5.6-2.6,9.2C354,363.1,357.9,363.5,361.7,363.8z
					 M528.7,114c-4.4-2.6-8-4.7-12.6-7.4c1.5,5,2.6,8.6,3.8,12.6C523.2,117.2,525.6,115.8,528.7,114z M282.1,412.1
					c-1.2-2-2-3.2-3-4.9c-3.4,2.3-6.5,4.4-9.7,6.6C274.8,420.3,277.6,413.6,282.1,412.1z M316.5,407.9c-1,1.6-1.8,3-2.6,4.4
					c7.3,5.1,7.3,5.1,11.3,1.4C322.5,411.9,319.8,410.1,316.5,407.9z M381.7,170.1c-3,5.9-2.4,8,3.1,13.2
					C383.9,179.3,382.9,175,381.7,170.1z"/>
			</g>
		</g>
	</g>
	<g>
		<g>
			<path class="st0" d="M83.6,390.2h2.7l16.4,47.6c1.2,3.5,2.5,6.4,4,8.7c1.4,2.2,3.2,3.4,5.3,3.5v2.2H95.4v-2.2h1.1
				c0.5,0,0.8-0.5,0.8-1.5c0-0.3-0.1-0.7-0.2-1l-5.6-16.2H71.1c-2.1,6-3.2,10.5-3.2,13.4c0,1.6,0.5,2.8,1.5,3.8c1,1,2.3,1.5,4,1.5
				h2.5v2.2H55.1v-2.2c3.5-0.2,6.6-3.9,9.5-11.1L83.6,390.2z M82,403.5l-9.7,24.8h18.3L82,403.5z"/>
			<path class="st0" d="M115,392.7h22.7v2.2c-2.8,0.1-4.7,0.6-5.6,1.6c-1,1-1.4,2.9-1.4,5.8v18.8l11.5-11.3c1.8-1.8,3.6-3.9,5.2-6.2
				c1.6-2.3,2.4-4.2,2.4-5.7c0-2-1.6-3-4.8-3.1v-2.2h21.4v2.2c-4,0.5-8.3,2.9-12.9,7.4l-15.1,14.6l16.3,21.8
				c5.6,7.5,10.4,11.3,14.4,11.2v2.2h-15l-23.4-31.4v21.8c0,4.8,2.4,7.2,7.1,7.4v2.2H115v-2.2c2.8,0,4.7-0.6,5.6-1.6s1.4-3,1.4-5.8
				v-40.3c0-3-0.5-5-1.6-5.9c-1.1-0.9-2.9-1.4-5.5-1.5V392.7z"/>
		</g>
		<g>
			<path class="st0" d="M429.6,398.2c3.8-2.3,7.4-4.1,10.9-5.2c3.5-1.1,6.8-1.7,10.1-1.7c4.2,0,7.7,1.1,10.5,3.2s4.1,5,4.1,8.5
				c0,3.2-0.9,6.2-2.8,9.2c-1.9,3-5.8,7.4-11.7,13.2L430.8,445h26.2c2.7,0,4.6-0.6,5.8-1.8c1.2-1.2,2-3,2.4-5.3h2.2l-3.3,16.4H462
				v-0.5c0-1.1-0.6-1.6-1.7-1.6H424v-2.2l13.6-16.4c2.1-2.5,5.1-6.4,9.1-11.7c4-5.4,6.6-9.5,7.7-12.3c1.1-2.9,1.7-5.2,1.7-7.2
				c0-2.3-0.8-4.3-2.3-6c-1.5-1.7-3.5-2.6-6.1-2.6c-3.7,0-7.1,1.8-10,5.5c-2.9,3.6-4.6,8.1-5,13.2h-3.2V398.2z"/>
			<path class="st0" d="M500.6,391c5.6,0,10.5,2.4,14.4,7.2c4,4.8,6,11.2,6,19.3c0,10.1-2.8,18.6-8.3,25.6
				c-5.5,7-11.4,10.4-17.6,10.4c-3.3,0-6.6-1.1-9.7-3.3c-3.2-2.2-5.6-5.2-7.3-9c-1.7-3.8-2.5-8.5-2.5-13.9c0-10.2,2.7-18.9,8.1-25.9
				C489.2,394.5,494.8,391,500.6,391z M496.5,396.1c-4.7,0-8.3,2.3-10.7,6.8c-2.5,4.5-3.7,10.3-3.7,17.3c0,7.6,1.8,14.2,5.4,19.7
				c3.6,5.5,7.8,8.2,12.7,8.2c4.2,0,7.5-2,10.2-6c2.6-4,3.9-9.8,3.9-17.4c0-5.3-0.8-10.2-2.4-14.6c-1.6-4.4-3.9-7.9-6.9-10.3
				C501.9,397.3,499.1,396.1,496.5,396.1z"/>
		</g>
	</g>
</g>
<g>
	<path class="st0" d="M587.1,673.1c-0.4-0.2-0.8-0.5-1.2-0.7c-9.9-4.8-19.3-10.4-28.9-15.7c-4.4-2.4-7.7-5.3-9.7-10.4
		c-4.5-11.5-10-22.7-15.2-34c-1.8-3.8-3-4-6-1.2c-6.4,5.8-13.2,11.1-19.8,16.6c-2.8,2.3-3.9,1.3-5.5-0.9c-3-4.1-6-8.2-9-12.2
		c-1.8-2.5-3.6-3.1-6.5-1c-7.2,5.4-14.7,10.3-22.3,15c-15.3,9.4-31.4,17.5-48.1,24.1c-17.1,6.7-34.6,12-52.6,15.7
		c-12.9,2.7-25.9,4.7-39,5.7c-28,2.1-56,0.9-83.7-4.3c-20.4-3.8-40.3-9.5-59.6-17.2c-24.9-10-48.2-22.9-69.9-38.7
		c-3.3-2.4-4.5-2.2-6.9,1.1c-3.2,4.3-6.4,8.5-9.5,12.8c-1.2,1.6-2,2.1-3.9,0.6c-7-5.5-13.8-11.1-20.4-17c-1-0.9-1.9-1.7-3.2-2.1
		c-1.7,0.3-2.3,1.7-2.9,2.9c-5.6,11.6-11,23.3-15.8,35.3c-1.4,3.5-3.3,5.9-6.6,7.8c-11.1,6.3-22.2,12.5-33.5,18.4
		c-4.9,2.5-5,3.4-0.7,7.2c18.7,16.5,38.3,31.8,59.7,44.8c10.4,6.3,20.8,12.6,31.5,18.4c2.7,1.5,4.4,1.5,5.9-1.6
		c2.3-5,5.3-9.8,7.5-14.9c1.1-2.7,2.5-2.3,4.3-1.4c6.3,3.3,12.8,6.1,19.3,9c16.7,7.4,33.9,13.4,51.4,18.3c18,5,36.3,8.9,54.9,11.3
		c15.1,2,30.2,3.6,45.4,3.9c16.6,0.3,33.2,0,49.8-1.7c13.3-1.4,26.6-3.2,39.8-5.6c10.5-2,20.8-4.5,31.1-7.3
		c16.2-4.4,32.1-9.9,47.6-16.3c8.5-3.5,17-7.2,25.1-11.5c1.9-1,3.2-1,4.3,1.5c2.3,5.2,5.2,10.1,7.7,15.2c1.4,2.9,3.3,2.9,5.4,1.4
		c2.3-1.7,4.9-2.9,7.3-4.4c6.1-4,12.9-6.7,19.1-10.7c4.5-2.9,8.9-6,13.6-8.7c4.8-2.7,9.1-6.2,13.7-9.3c6.9-4.7,13.5-9.8,19.8-15.3
		c5.6-4.8,11.6-9.2,17-14.4C591.8,677,592.4,676.3,587.1,673.1z M76.6,725.6c-4.1-2.4-8.2-4.7-12.2-7.3c-11.1-7.2-21.8-15-32.1-23.2
		c-6-4.8-11.8-9.8-17.8-14.7c-2-1.7-2.4-2.6,0.5-4.1c10.6-5.8,20.8-12.1,31.4-17.8c5-2.7,5.4-7.8,7.2-12.1
		c4.3-9.8,8.3-19.8,13.1-29.8c6.4,5.5,12.4,10.7,18.8,15.4c2,1.5,2.9,2.7,0.8,5.3C75,651.9,64,666.9,52.8,681.6
		c-2,2.6-1.8,4.4-0.2,6.9c7.5,12,15.3,23.9,23.9,35.1C76.9,724.1,77.3,724.5,76.6,725.6z M443.9,735.7
		c-20.4,7.9-41.4,14.1-62.9,18.6c-27.6,5.7-55.5,8.7-88.8,8.6c-16-0.2-37.1-1.6-58-4.9c-25.5-4-50.3-10.4-74.5-19.1
		c-21-7.5-41-17-60.5-27.6c-13.4-7.3-25.8-16.1-38.5-24.5c-1.8-1.2-2.7-2.1-0.9-4.6c15.2-20.5,30.2-41.1,45.2-61.7
		c1.3-1.8,2.2-1.9,4-0.6c19,13.7,39.3,25.3,60.9,34.5c7.5,3.2,15.1,6.1,22.9,8.7c4.8,1.3,9.6,2.7,14.4,4.3c1.4,0.5,2.9,1,4.3,1.4
		c4.9,1.3,9.8,2.6,14.7,3.7c26,5.8,52.2,8.6,78.7,8c17.9-0.4,35.7-2.5,53.3-5.8c43.1-8.2,82.8-24.5,119.1-49
		c2.8-1.9,5.7-3.7,8.5-5.8c1.7-1.3,2.6-1.4,4,0.5c15.1,20.7,30.2,41.4,45.4,62c1.6,2.1,0.9,2.9-0.7,4.1
		c-9.8,6.9-19.9,13.6-30.2,19.8C485,717.7,464.9,727.6,443.9,735.7z M580.8,680.1c-8.4,6.7-16.4,13.8-24.9,20.5
		c-5.7,4.4-11.4,8.9-17.5,12.5c-6.7,4.1-12.3,10-21.2,12.5c3.7-5.2,7-9.7,10.1-14.1c5.5-7.7,10.5-15.7,15.5-23.7
		c1.3-2.1,1.3-3.7-0.3-5.7c-11.4-15-22.7-30.2-34.2-45.2c-1.5-1.9-1.3-2.8,0.5-4.2c6.5-5.1,12.8-10.4,19.6-15.9
		c2.9,6.4,5.8,12.7,8.5,19.1c2.5,5.9,4.8,11.8,7.2,17.7c0.7,1.8,1.8,3.1,3.5,4.2c10.6,6.6,21.5,12.8,32.6,18.7
		C582.6,677.7,582.6,678.6,580.8,680.1z"/>
	<g>
		<g>
			<path class="st0" d="M98,690.5c-1.9-1.1-2.8-1.6-4.7-2.8c1.9-4.9,2.8-7.3,4.7-12.1c-2.3-1.4-3.4-2.1-5.7-3.5
				c-3.5,3.9-5.3,5.8-8.8,9.6c-1.8-1.2-2.7-1.8-4.5-2.9c11.1-11.9,21.9-24,32.5-36.3c1.8,1.1,2.7,1.7,4.5,2.8
				C109.7,660.1,103.7,675.2,98,690.5z M99.7,671.5c2.2-5.7,3.4-8.5,5.7-14.1c-4,4.6-6,6.9-10,11.4C97,669.9,97.9,670.4,99.7,671.5z
				"/>
			<path class="st0" d="M123.3,695.6c-0.9,1.9-2.5,3-4.7,3.5c-2.2,0.5-4.5,0.2-6.7-1c-3.2-1.7-4.8-2.6-8.1-4.4
				c7.8-14,15.6-28,23.5-42c2.6,1.5,3.9,2.2,6.6,3.6c2,1,3.3,2.6,4,4.6c0.7,2,0.7,4-0.3,5.8c-2,4-3,6-5,10c-0.9,1.8-2.3,2.9-4.3,3.5
				c1,2.2,1.1,4.3,0.1,6.3C126.3,689.5,125.3,691.5,123.3,695.6z M128.2,673.5c2.1-4,3.1-6,5.2-10c0.4-0.8,0.5-1.6,0.1-2.5
				c-0.3-0.9-0.9-1.5-1.8-2c-1-0.5-1.5-0.8-2.6-1.4c-3.4,6.2-5,9.3-8.4,15.5c1.1,0.6,1.6,0.9,2.7,1.4c0.9,0.5,1.8,0.6,2.7,0.4
				C127.2,674.8,127.8,674.3,128.2,673.5z M118.7,693.2c2.1-4,3.1-6,5.1-10c0.4-0.8,0.4-1.6,0.1-2.5c-0.4-0.9-1-1.6-1.9-2
				c-1.3-0.7-2-1-3.3-1.7c-3.4,6.2-5,9.3-8.4,15.5c1.4,0.7,2.1,1.1,3.4,1.8c1,0.5,1.9,0.7,2.9,0.4
				C117.6,694.5,118.3,694,118.7,693.2z"/>
			<path class="st0" d="M148.8,707.2c-0.8,1.9-2.3,3.2-4.5,3.9c-2.2,0.7-4.4,0.5-6.7-0.5c-2.3-1-4-2.6-4.9-4.6c-1-2.1-1-4-0.2-5.9
				c0.5-1.2,0.8-1.7,1.4-2.9c1.8,0.9,2.8,1.3,4.6,2.1c-0.5,1.2-0.8,1.8-1.3,2.9c-0.4,0.8-0.3,1.7,0.1,2.5c0.4,0.9,1.1,1.5,2.1,2
				c1,0.4,1.9,0.5,2.9,0.2c0.9-0.3,1.6-0.8,1.9-1.6c0.9-2.2,1.4-3.2,2.3-5.4c1.2-2.8,1.2-5.7,0-8c-1.1-2-2.7-4.2-3.6-6.3
				c-1.2-2.5-0.9-5.6,0.6-8.8c1.3-2.7,1.9-4.1,3.2-6.8c0.9-1.9,2.3-3.1,4.4-3.8c2-0.7,4-0.6,6.1,0.3c2,0.9,3.5,2.3,4.3,4.3
				c0.9,2,0.9,3.9,0.1,5.8c-0.5,1.2-0.7,1.8-1.2,3c-1.7-0.7-2.6-1.1-4.3-1.8c0.5-1.2,0.8-1.8,1.3-3c0.4-0.8,0.3-1.6,0-2.5
				c-0.4-0.8-1-1.5-1.9-1.8c-0.9-0.4-1.8-0.4-2.6-0.1c-0.9,0.3-1.5,0.8-1.9,1.7c-1,2.1-1.5,3.2-2.4,5.4c-1.3,2.8-1.4,5.6-0.1,8
				c1.1,2,2.6,4.2,3.7,6.2c1.3,2.4,1.1,5.6-0.2,8.8C150.5,703,149.9,704.4,148.8,707.2z"/>
			<path class="st0" d="M174.9,716.9c-0.7,2-2,3.4-4.2,4.2c-2.1,0.8-4.4,0.8-6.7,0c-2.3-0.8-4.1-2.3-5.2-4.2c-1.1-2-1.3-3.9-0.6-5.9
				c4-10.3,7.9-20.7,11.9-31c0.7-1.9,2.1-3.3,4.1-4.1c2-0.8,4-0.9,6-0.1c2.1,0.7,3.6,2,4.6,3.9c1,1.9,1.2,3.8,0.5,5.8
				c-0.4,1.2-0.6,1.8-1,3c-1.8-0.6-2.7-0.9-4.4-1.5c0.4-1.2,0.6-1.8,1-3c0.3-0.8,0.2-1.7-0.2-2.5c-0.4-0.8-1.1-1.4-2-1.7
				c-0.9-0.3-1.8-0.3-2.6,0.1c-0.8,0.4-1.4,1-1.7,1.8c-3.8,10.4-7.6,20.8-11.5,31.1c-0.3,0.8-0.2,1.7,0.3,2.5
				c0.5,0.8,1.2,1.4,2.2,1.8c1,0.4,2,0.4,2.9,0c0.9-0.3,1.5-0.9,1.8-1.8c0.4-1.2,0.6-1.8,1.1-3c1.9,0.7,2.8,1,4.7,1.6
				C175.5,715,175.3,715.7,174.9,716.9z"/>
			<path class="st0" d="M199.6,731.9c-2-0.5-3-0.8-5-1.3c2.3-8.5,3.4-12.7,5.7-21.2c-2.8-0.8-4.2-1.1-7-2
				c-2.4,8.4-3.7,12.6-6.1,21.1c-2-0.6-3-0.9-4.9-1.5c4.7-15.4,9.3-30.7,14-46.1c1.7,0.5,2.6,0.8,4.3,1.3
				c-2.4,8.4-3.7,12.6-6.1,21.1c2.8,0.8,4.1,1.2,6.9,1.9c2.3-8.5,3.4-12.7,5.7-21.2c1.7,0.5,2.6,0.7,4.4,1.1
				C207.5,700.8,203.6,716.4,199.6,731.9z"/>
			<path class="st0" d="M220.8,736.7c-1-0.2-1.5-0.3-2.5-0.5c-2.4-4.6-3.9-8.8-4.3-12.5c-0.5-3.7-0.1-8,0.9-12.8
				c1.1-4.8,2.6-8.8,4.6-12c1.9-3.2,4.8-6.5,8.5-9.8c0.9,0.2,1.3,0.3,2.2,0.4c-2.9,3.8-5.2,7.3-6.7,10.5c-1.5,3.2-2.8,7.2-3.8,11.9
				c-1,4.7-1.5,8.9-1.3,12.4C218.4,727.9,219.2,732,220.8,736.7z"/>
			<path class="st0" d="M245.9,740.8c-6.1-0.8-9.1-1.3-15.1-2.3c2.7-15.8,5.4-31.6,8.1-47.5c1.8,0.3,2.7,0.4,4.4,0.7
				c-2.3,14.4-4.6,28.9-6.9,43.3c4,0.6,6,0.9,10,1.4C246.3,738.3,246.2,739.1,245.9,740.8z"/>
			<path class="st0" d="M266.9,718.9c-0.4,4.9-1.4,9.1-3,12.5c-1.6,3.4-4.2,7-7.9,10.7c-1-0.1-1.5-0.2-2.5-0.3
				c2.9-4,4.9-7.7,6.1-11.1c1.2-3.3,2.1-7.4,2.5-12.3c0.5-4.8,0.4-9,0-12.5c-0.5-3.5-1.6-7.5-3.2-12c0.9,0.1,1.3,0.1,2.2,0.2
				c2.5,4.3,4.2,8.3,5.1,11.9C267.1,709.7,267.3,714,266.9,718.9z"/>
			<path class="st0" d="M292.9,736.8c0,2.1-0.9,3.8-2.7,5.3c-1.8,1.4-3.9,2.1-6.3,2c-2.5-0.1-4.5-0.9-6.2-2.5
				c-1.6-1.5-2.4-3.4-2.3-5.4c0.8-13.5,1.6-27.1,2.4-40.6c1.8,0.1,2.7,0.2,4.5,0.2c-0.6,13.5-1.2,27.1-1.8,40.6c0,0.9,0.3,1.7,1,2.3
				c0.7,0.7,1.6,1,2.6,1c1,0,1.9-0.2,2.7-0.8c0.7-0.6,1.1-1.4,1.2-2.2c0.4-13.5,0.7-27.1,1.1-40.6c1.8,0,2.7,0.1,4.5,0.1
				C293.3,709.7,293.1,723.2,292.9,736.8z"/>
			<path class="st0" d="M320.4,736.2c0.1,2.1-0.6,3.9-2.3,5.4c-1.7,1.5-3.7,2.4-6.2,2.5c-2.5,0.1-4.6-0.6-6.3-2
				c-1.8-1.4-2.6-3.2-2.7-5.3c0-1.3,0-1.9,0-3.2c2,0,3,0,4.9-0.1c0,1.3,0,1.9,0.1,3.2c0,0.9,0.4,1.6,1.2,2.2s1.6,0.9,2.7,0.9
				s1.9-0.4,2.6-1c0.7-0.7,1-1.4,1-2.3c-0.1-2.4-0.2-3.5-0.3-5.9c-0.1-3.1-1.3-5.6-3.5-7.2c-1.8-1.3-4.1-2.7-5.9-4.1
				c-2.1-1.7-3.2-4.7-3.2-8.2c0-3-0.1-4.5-0.1-7.5c0-2.1,0.7-3.8,2.2-5.3c1.5-1.5,3.3-2.3,5.5-2.3c2.2-0.1,4,0.6,5.6,2
				c1.6,1.4,2.5,3.1,2.6,5.2c0.1,1.3,0.1,1.9,0.2,3.2c-1.8,0.1-2.8,0.1-4.6,0.2c-0.1-1.3-0.1-1.9-0.1-3.2c0-0.9-0.4-1.6-1.1-2.2
				c-0.7-0.6-1.5-0.9-2.4-0.8c-0.9,0-1.7,0.4-2.4,1c-0.6,0.6-1,1.4-0.9,2.3c0.1,2.4,0.1,3.5,0.1,5.9c0.1,3.1,1.2,5.7,3.3,7.2
				c1.8,1.4,4.1,2.6,5.9,4c2.1,1.6,3.4,4.6,3.6,8.1C320.1,731.7,320.2,733.2,320.4,736.2z"/>
			<path class="st0" d="M347.7,733.7c0.3,2.1-0.4,3.9-1.9,5.6c-1.5,1.7-3.6,2.6-6,2.9c-2.4,0.3-4.6-0.3-6.5-1.6
				c-1.9-1.3-2.8-3-3-5.1c-0.1-1.3-0.2-1.9-0.3-3.2c2-0.2,3-0.2,4.9-0.4c0.1,1.3,0.2,1.9,0.3,3.2c0.1,0.9,0.5,1.6,1.3,2.2
				c0.8,0.5,1.7,0.8,2.8,0.7c1-0.1,1.9-0.5,2.6-1.2c0.7-0.7,0.9-1.5,0.8-2.4c-0.3-2.3-0.4-3.5-0.7-5.8c-0.3-3-1.7-5.5-3.9-6.9
				c-1.9-1.2-4.3-2.4-6.1-3.6c-2.2-1.6-3.5-4.5-3.8-7.9c-0.2-3-0.4-4.5-0.6-7.5c-0.2-2.1,0.5-3.9,1.9-5.5c1.4-1.6,3.2-2.5,5.3-2.7
				c2.2-0.2,4.1,0.3,5.8,1.6c1.7,1.3,2.7,2.9,3,5c0.2,1.3,0.2,1.9,0.4,3.2c-1.8,0.2-2.7,0.3-4.6,0.6c-0.1-1.3-0.2-1.9-0.4-3.2
				c-0.1-0.9-0.5-1.6-1.2-2.1c-0.7-0.5-1.6-0.8-2.5-0.7c-0.9,0.1-1.7,0.5-2.3,1.2c-0.6,0.7-0.9,1.5-0.8,2.4c0.2,2.3,0.3,3.5,0.6,5.9
				c0.3,3.1,1.6,5.6,3.8,7c1.9,1.2,4.3,2.3,6.2,3.6c2.3,1.5,3.7,4.3,4.1,7.8C347.1,729.2,347.3,730.7,347.7,733.7z"/>
			<path class="st0" d="M385.1,734.7c-2,0.4-3,0.7-5,1.1c-1.9-9.2-2.9-13.8-4.8-23c-0.2,9.7-0.4,14.5-0.8,24.2c-2,0.4-3,0.6-5,0.9
				c-3.9-8.9-5.8-13.3-9.5-22.2c1.5,9.3,2.3,13.9,3.9,23.2c-2,0.3-3,0.5-5,0.8c-2.4-15.9-4.9-31.7-7.3-47.6c1.8-0.3,2.7-0.4,4.4-0.7
				c4.4,11.9,9.1,23.7,14.1,35.3c0.4-12.7,0.5-25.4,0.3-38c1.8-0.4,2.6-0.6,4.4-0.9C378.1,703.4,381.6,719.1,385.1,734.7z"/>
			<path class="st0" d="M409.9,728.4c-5.9,1.7-8.9,2.5-14.8,4c-3.9-15.6-7.8-31.1-11.7-46.7c5.2-1.3,7.9-2,13-3.5
				c0.5,1.6,0.7,2.5,1.2,4.1c-3.5,1-5.3,1.5-8.8,2.4c1.8,6.8,2.7,10.2,4.5,17.1c3.7-1,5.5-1.5,9.2-2.6c0.5,1.6,0.7,2.5,1.2,4.1
				c-3.7,1.1-5.6,1.6-9.3,2.6c1.8,6.8,2.7,10.2,4.5,17.1c3.9-1,5.9-1.6,9.8-2.7C409.1,725.9,409.4,726.7,409.9,728.4z"/>
			<path class="st0" d="M424.6,723.8c-2,0.7-2.9,1-4.9,1.6c-4.9-15.3-9.8-30.6-14.6-45.9c1.7-0.5,2.6-0.8,4.3-1.4
				C414.4,693.3,419.5,708.6,424.6,723.8z"/>
			<path class="st0" d="M448.3,707c0.8,1.9,0.7,3.9-0.4,5.9c-1.1,2-2.8,3.5-5.1,4.4c-2.3,0.9-4.6,1-6.7,0.2
				c-2.2-0.8-3.6-2.1-4.3-4.1c-0.4-1.2-0.7-1.8-1.1-3c1.9-0.7,2.8-1,4.7-1.7c0.5,1.2,0.7,1.8,1.1,3c0.3,0.8,0.9,1.4,1.8,1.7
				c0.9,0.3,1.9,0.3,2.9-0.1s1.7-1,2.2-1.9c0.5-0.9,0.5-1.7,0.2-2.5c-0.9-2.2-1.3-3.3-2.2-5.5c-1.1-2.8-3.1-4.9-5.7-5.6
				c-2.2-0.7-4.8-1.1-7-1.9c-2.6-0.9-4.6-3.4-5.8-6.7c-1-2.8-1.5-4.2-2.6-7c-0.7-1.9-0.6-3.9,0.4-5.8c1-1.9,2.4-3.3,4.5-4
				c2-0.8,4.1-0.8,6.1,0c2,0.8,3.4,2.1,4.2,4c0.5,1.2,0.7,1.8,1.2,3c-1.7,0.7-2.6,1.1-4.3,1.8c-0.5-1.2-0.7-1.8-1.2-3
				c-0.3-0.8-0.9-1.4-1.8-1.7c-0.9-0.3-1.7-0.3-2.6,0c-0.9,0.3-1.5,0.9-1.9,1.8s-0.5,1.6-0.1,2.5c0.8,2.2,1.2,3.3,2.1,5.5
				c1.1,2.9,3,5,5.5,5.7c2.2,0.7,4.8,1.1,7,1.8c2.6,0.8,4.7,3.2,6.1,6.4C446.6,702.8,447.1,704.2,448.3,707z"/>
			<path class="st0" d="M453.8,664.6c-1.9,0.9-2.8,1.4-4.7,2.2c6.2,13.2,12.4,26.5,18.6,39.7c-1.9,0.9-2.8,1.3-4.7,2.2
				c-6-13.3-12.1-26.6-18.1-40c-2.1,1-3.2,1.4-5.3,2.3c-0.7-1.6-1-2.4-1.7-3.9c5.6-2.4,8.4-3.7,14-6.4
				C452.7,662.3,453.1,663,453.8,664.6z"/>
			<path class="st0" d="M492.7,693.7c-5.5,3.1-8.3,4.5-13.9,7.4c-7.3-14.3-14.5-28.6-21.8-42.9c4.9-2.5,7.3-3.8,12.2-6.5
				c0.8,1.5,1.3,2.2,2.1,3.7c-3.3,1.8-4.9,2.7-8.2,4.4c3.3,6.3,4.9,9.4,8.2,15.6c3.5-1.8,5.2-2.7,8.6-4.7c0.8,1.5,1.3,2.2,2.1,3.7
				c-3.5,1.9-5.2,2.9-8.7,4.7c3.3,6.3,4.9,9.4,8.2,15.6c3.7-1.9,5.5-2.9,9.1-4.9C491.5,691.5,491.9,692.2,492.7,693.7z"/>
			<path class="st0" d="M517.5,678.7c-1.8,1.2-2.7,1.7-4.4,2.9c-4-6.3-6-9.5-10.1-15.8c-0.5-0.8-1.2-1.2-2.1-1.3
				c-1-0.1-1.9,0.1-2.7,0.6c-1.3,0.8-1.9,1.2-3.2,2c4.6,7.5,6.9,11.2,11.4,18.7c-1.8,1.1-2.7,1.6-4.5,2.7
				c-8.2-13.8-16.4-27.6-24.5-41.4c2.8-1.7,4.2-2.5,6.9-4.2c1.9-1.2,3.9-1.6,6.1-1.2c2.1,0.4,3.8,1.4,4.9,3.1
				c2.5,3.8,3.7,5.6,6.2,9.4c1.2,1.8,1.4,3.7,0.7,5.9c2.3,0.3,4,1.3,5.1,3C511.4,669.3,513.4,672.4,517.5,678.7z M497.3,656.8
				c-2.4-3.8-3.6-5.7-6-9.5c-0.5-0.8-1.2-1.2-2.1-1.4c-0.9-0.2-1.8,0-2.6,0.5c-1.2,0.7-1.8,1.1-3,1.9c3.7,6,5.5,9,9.2,15.1
				c1.3-0.8,1.9-1.2,3.1-1.9c0.9-0.5,1.4-1.3,1.7-2.2C497.8,658.4,497.7,657.5,497.3,656.8z"/>
		</g>
	</g>
</g>
</svg>
