<?xml version="1.0" encoding="utf-8"?>
<!-- Generator: Adobe Illustrator 22.0.1, SVG Export Plug-In . SVG Version: 6.00 Build 0)  -->
<svg version="1.1" id="Ebene_1" xmlns="http://www.w3.org/2000/svg" xmlns:xlink="http://www.w3.org/1999/xlink" x="0px" y="0px"
	 viewBox="0 0 393.4 344.9" style="enable-background:new 0 0 393.4 344.9;" xml:space="preserve">
<style type="text/css">
	.st0{fill:#1A1A1A;}
</style>
<g>
	<path class="st0" d="M378.9,249.2h-49.3c-1.6,0-2.9-1.3-2.9-2.9v-49.3c0-8-6.5-14.5-14.5-14.5c-8,0-14.5,6.5-14.5,14.5v49.3
		c0,1.6-1.3,2.9-2.9,2.9h-49.3c-8,0-14.5,6.5-14.5,14.5c0,8,6.5,14.5,14.5,14.5h49.3c1.6,0,2.9,1.3,2.9,2.9v49.3
		c0,8,6.5,14.5,14.5,14.5c8,0,14.5-6.5,14.5-14.5v-49.3c0-1.6,1.3-2.9,2.9-2.9h49.3c8,0,14.5-6.5,14.5-14.5
		C393.4,255.7,386.9,249.2,378.9,249.2z"/>
	<path class="st0" d="M135.9,291.3c-1.8-5-1.1-9.9,0.1-15.7c5.1-25.9,10.4-52.3,16-80.9c0.4-2.1,0.8-4.2,1.1-6.3
		c-1.1,0.2-2.2,0.4-3.4,0.4c-3.6,0-8.9-1.3-13.5-7.7c-9.5-13.2-19.5-27.2-29.7-41.6c-6-8.5-5.2-18.1,2.3-25.6
		c10.2-10.3,20.5-20.7,30.5-30.8c4.2-4.3,8.4-8.5,12.7-12.8c5.3-5.4,11.7-9,19.1-10.7c4.6-1.1,9.1-2,13.5-2.9c0.5-0.1,1-0.2,1.5-0.3
		c-1.3-0.7-2.6-1.4-4-2l-13.8-5.9c-0.4-4-1.9-15.2-6.3-28.1c0,0,0-0.1,0-0.1l0,0c0-0.1-0.1-0.2-0.1-0.3c-1.1-3.1-3.4-5.7-6.9-7.7
		C140.5,4,125.9,1,114.6,0.2C104-0.6,85.3,1,75.1,3.7c-10.9,2.8-24.8,8.3-37.4,19c-3,2.5-4.8,5.5-5.4,8.7c0,0.2-0.1,0.4-0.1,0.5
		c-2.1,13.5-1.6,24.8-1.3,28.7l-12.6,8.2c-11.3,7.4-18,19.9-17.8,33.3L0,271.2c0.1,4.5,1.3,9,3.6,13l2.7,4.7l0.5,13
		c0.1,1.6,1.3,3,2.9,3.2l19.3,2.5c0.9,0.1,1.8-0.1,2.5-0.7c0.7-0.6,1.2-1.4,1.3-2.3l1.4-13.3c1.7-2.1,3-4.5,3.9-7.1
		c1.1-2.9,1.6-5.9,1.6-9l1.6-71.5c2.4,25,4.7,53.2,5.2,71c0.2,6,3.3,11.3,8.1,14.4l1.8,20.4c0.1,1.6,1.3,2.8,2.9,3
		c20.8,2.8,41.9,3.2,62.9,1.4c12.1-1.1,24.1-2.9,35.9-5.5c-3.6-1.6-7.2-3.5-10.7-5.5C144,301,138.3,297.8,135.9,291.3z M42.1,41.4
		c-2.5-3.3-3.7-6.2-3.3-8.7c0,0,0,0,0-0.1c0,0,0,0,0,0c0,0,0,0,0,0c0,0,0,0,0,0c0.3-1.7,1.4-3.3,3.2-4.9c10.6-9,22.4-14.1,32.2-16.8
		c11.8-3.4,30.4-5,42.7-3.7c10.1,1,22.5,3.9,34.5,11c2.1,1.2,3.4,2.7,4,4.3c0,0,0,0,0,0c0,0,0,0.1,0,0.1c0,0,0,0,0,0
		c0.8,2.4,0.2,5.4-1.8,9.1c-14.9-8-29.9-10.3-40.8-10.8c-8.7-0.3-23.9,1-32.3,2.8C69.8,26,55.4,31,42.1,41.4z M69.1,62
		c-9.7-5.5-17.3-10.9-22.4-15.7c11.9-9.2,24.9-13.7,34.6-15.9c9.1-2,22.5-3.2,31.9-2.8c10,0.5,23.5,2.7,36.8,9.6
		c-4.2,5.6-10.8,12.2-19.3,19.3c-12.1,10.1-24.9,18.6-29.2,21.4C96.8,76,82.8,69.8,69.1,62z"/>
	<path class="st0" d="M218.8,263.7c0-14.6,11.9-26.5,26.5-26.5h40.2v-40.2c0-14.6,11.9-26.5,26.5-26.5c12.5,0,23,8.7,25.8,20.4
		c7.1-4.9,14.2-9.9,21.3-14.9c4.4-3.1,5.2-5.9,2.8-11c-7.7-16.8-15.6-33.4-23.1-50.4c-3.9-9-9.7-15.2-17.1-19.7
		c-1.9-1.1-3.8-2.2-5.6-3.4c-9.6-6-19.3-12.1-28.9-18.2c-1.9-1.2-3.8-1.4-5.9-0.7c-20.4,6-39.2,2.6-56.4-9.9c-2-1.5-4-1.8-6.4-1.2
		c-7.5,1.9-15.1,3.6-22.6,5.3c-7.5,1.6-14.9,2.9-22.4,4.7c-4.8,1.1-9.4,3.5-13.3,7.5c-14.4,14.5-28.8,29-43.1,43.5
		c-3.3,3.4-3.6,6.5-1,10.2c9.9,13.9,19.8,27.7,29.7,41.5c2.6,3.5,4.6,3.5,7.9,0.3c2.8-2.7,5.6-5.5,8.4-8.2c1.5-1.5,3.1-2.9,4.9-4.7
		c0.1,1.1,0.1,1.6,0.1,2c-0.6,11.2-1.3,22.4-3.5,33.5c-5.3,27-10.6,54-16,81c-1.8,9.2-1.5,10.6,5.5,14.6c13.1,7.4,27.1,12,41.3,16.1
		c12.7,3.7,25.8,5.5,39,6c11.9,0.5,23.8,0.5,35.7-1.3c8.8-1.4,9.7-2.7,11.2-13.1c0.5-3.3,1-6.7,1.5-10h-36.7
		C230.7,290.2,218.8,278.3,218.8,263.7z M276.2,82.5c-1.9,5.4-4.7,9.4-8.4,12.5c-11.8,9.6-30,6.3-37.7-6.9c-2.3-4-3.4-8.6-3.5-14.4
		C242.3,82.3,258.6,85.2,276.2,82.5z"/>
</g>
</svg>
