<?xml version="1.0" encoding="utf-8"?>
<!-- Generator: Adobe Illustrator 22.0.1, SVG Export Plug-In . SVG Version: 6.00 Build 0)  -->
<svg version="1.1" id="Ebene_1" xmlns="http://www.w3.org/2000/svg" xmlns:xlink="http://www.w3.org/1999/xlink" x="0px" y="0px"
	 viewBox="0 0 363.4 314.9" style="enable-background:new 0 0 363.4 314.9;" xml:space="preserve">
<style type="text/css">
	.st0{fill:#1A1A1A;}
</style>
<path class="st0" d="M806.6,154.3L776.8-12.1c-2.2-13.3-10.9-24.5-23.3-29.8l-13.8-5.9c-0.4-4-1.9-15.2-6.3-28.1c0,0,0-0.1,0-0.1
	l0,0c0-0.1-0.1-0.2-0.1-0.3c-1.1-3.1-3.4-5.7-6.9-7.7c-14.3-8.4-28.9-11.4-40.1-12.2c-10.6-0.8-29.3,0.8-39.5,3.5
	c-10.9,2.8-24.8,8.3-37.4,19c-3,2.5-4.8,5.5-5.4,8.7c0,0.2-0.1,0.4-0.1,0.5c-2.1,13.5-1.6,24.8-1.3,28.7l-12.6,8.2
	c-11.3,7.4-18,19.9-17.8,33.3l-0.4,169.1c0.1,4.5,1.3,9,3.6,13l2.7,4.7l0.5,13c0.1,1.6,1.3,3,2.9,3.2l19.3,2.5
	c0.9,0.1,1.8-0.1,2.5-0.7c0.7-0.6,1.2-1.4,1.3-2.3l1.4-13.3c1.7-2.1,3-4.5,3.9-7.1c1.1-2.9,1.6-5.9,1.6-9l1.6-71.5
	c2.4,25,4.7,53.2,5.2,71c0.2,6,3.3,11.3,8.1,14.4l1.8,20.4c0.1,1.6,1.3,2.8,2.9,3c20.8,2.8,41.9,3.2,62.9,1.4
	c21-1.8,41.7-5.9,61.7-12.3c1.5-0.5,2.5-1.9,2.3-3.5l-1.8-20.4c4.2-3.9,6.4-9.6,5.5-15.5c-2.6-17.6-5.2-45.8-7.2-70.8l14,70.2
	c1,5.7,3.9,11,8.2,14.9l3.7,12.8c0.2,0.9,0.8,1.6,1.6,2c0.6,0.3,1.2,0.4,1.9,0.4c0.2,0,0.5-0.1,0.7-0.1l18.5-5.8
	c1.6-0.5,2.5-2,2.3-3.6l-1.7-12.9l1.9-5.1C806.9,163.4,807.3,158.8,806.6,154.3z M702.3-39.8c-12.1,10.1-24.9,18.6-29.2,21.4
	c-4.7-2-18.7-8.1-32.4-16c-9.7-5.5-17.3-10.9-22.4-15.7c11.9-9.2,24.9-13.7,34.6-15.9c9.1-2,22.5-3.2,31.9-2.8
	c10,0.5,23.5,2.7,36.8,9.6C717.4-53.4,710.8-46.9,702.3-39.8z M610.4-63.6C610.4-63.6,610.4-63.6,610.4-63.6
	C610.4-63.7,610.4-63.7,610.4-63.6c0-0.1,0-0.1,0-0.1c0,0,0,0,0,0c0.3-1.7,1.4-3.3,3.2-4.9c10.6-9,22.4-14.1,32.2-16.8
	c11.8-3.4,30.4-5,42.7-3.7c10.1,1,22.5,3.9,34.5,11c2.1,1.2,3.4,2.7,4,4.3c0,0,0,0,0,0c0,0,0,0.1,0,0.1c0,0,0,0,0,0
	c0.8,2.4,0.2,5.4-1.8,9.1c-14.9-8-29.9-10.3-40.8-10.8c-8.7-0.3-23.9,1-32.3,2.8c-10.7,2.3-25,7.2-38.4,17.7
	C611.2-58.2,610-61.1,610.4-63.6z"/>
<path class="st0" d="M1395.7-391.8c-11.8-14.2-23.8-28.2-35.3-42.7c-6.1-7.7-13.3-12.2-21.7-14.6c-2.1-0.6-4.2-1.2-6.3-1.8
	c-10.9-3.3-21.8-6.7-32.6-10.1c-2.1-0.7-4-0.3-5.9,0.8c-18.2,11-37.2,12.7-57,5c-2.3-0.9-4.4-0.7-6.5,0.5
	c-6.8,3.7-13.6,7.4-20.5,10.9c-6.8,3.5-13.7,6.7-20.4,10.3c-4.4,2.4-8.2,5.8-10.9,10.7c-10.1,17.7-20.3,35.5-30.4,53.2
	c-2.3,4.1-1.8,7.3,1.7,10.1c13.1,10.9,26.3,21.7,39.4,32.4c3.4,2.8,5.4,2.2,7.7-1.8c2-3.4,4-6.7,6-10.1c1.1-1.8,2.2-3.6,3.5-5.8
	c0.4,1.1,0.5,1.5,0.6,1.9c2.4,11,4.5,22,5.3,33.3c1.9,27.4,3.7,54.9,5.5,82.3c0.6,9.4,1.3,10.6,9.1,12.7c14.6,3.8,29.3,4.6,44.1,4.9
	c13.3,0.2,26.3-1.4,39.3-4.3c11.6-2.6,23.1-5.6,34.2-10.5c8.2-3.6,8.7-5.2,7.5-15.6c-2.7-23.5-5.4-47-7.9-70.6
	c-1.4-13.4-2.2-26.9-1.7-40.3c0.1-1.7,0.2-3.5,0.4-6c4.2,4.9,8.1,9,11.5,13.5c3.6,4.8,7.3,3.5,10,0.3c10.5-12.5,21-24.9,31.5-37.3
	C1399.3-384.5,1399.3-387.4,1395.7-391.8z M1291.4-449.2c-0.5,5.8-2.1,10.3-4.9,14.3c-8.9,12.4-27.3,13.9-38.2,3.1
	c-3.3-3.3-5.5-7.4-7.1-13C1258.6-440.6,1275.1-442,1291.4-449.2z"/>
<g>
	<path class="st0" d="M362.1,165c-7.7-16.8-15.6-33.4-23.1-50.4c-3.9-9-9.7-15.2-17.1-19.7c-1.9-1.1-3.8-2.2-5.6-3.4
		c-9.6-6-19.3-12.1-28.9-18.2c-1.9-1.2-3.8-1.4-5.9-0.7c-20.4,6-39.2,2.6-56.4-9.9c-2-1.5-4-1.8-6.4-1.2c-7.5,1.9-15.1,3.6-22.6,5.3
		c-7.5,1.6-14.9,2.9-22.4,4.7c-4.8,1.1-9.4,3.5-13.3,7.5c-14.4,14.5-28.8,29-43.1,43.5c-3.3,3.4-3.6,6.5-1,10.2
		c9.9,13.9,19.8,27.7,29.7,41.5c2.6,3.5,4.6,3.5,7.9,0.3c2.8-2.7,5.6-5.5,8.4-8.2c1.5-1.5,3.1-2.9,4.9-4.7c0.1,1.1,0.1,1.6,0.1,2
		c-0.6,11.2-1.3,22.4-3.5,33.5c-5.3,27-10.6,54-16,81c-1.8,9.2-1.5,10.6,5.5,14.6c13.1,7.4,27.1,12,41.3,16.1
		c12.7,3.7,25.8,5.5,39,6c11.9,0.5,23.8,0.5,35.7-1.3c8.8-1.4,9.7-2.7,11.2-13.1c3.4-23.4,6.9-46.8,10.7-70.2
		c2.1-13.3,4.8-26.5,8.8-39.4c0.5-1.7,1.1-3.3,1.9-5.7c2.8,5.8,5.5,10.7,7.6,16c2.3,5.6,6.1,5.3,9.6,2.9
		c13.3-9.4,26.7-18.6,40.1-27.9C363.7,172.9,364.4,170.1,362.1,165z M276.2,82.5c-1.9,5.4-4.7,9.4-8.4,12.5
		c-11.8,9.6-30,6.3-37.7-6.9c-2.3-4-3.4-8.6-3.5-14.4C242.3,82.3,258.6,85.2,276.2,82.5z"/>
	<path class="st0" d="M135.9,291.3c-1.8-5-1.1-9.9,0.1-15.7c5.1-25.9,10.4-52.3,16-80.9c0.4-2.1,0.8-4.2,1.1-6.3
		c-1.1,0.2-2.2,0.4-3.4,0.4c-3.6,0-8.9-1.3-13.5-7.7c-9.5-13.2-19.5-27.2-29.7-41.6c-6-8.5-5.2-18.1,2.3-25.6
		c10.2-10.3,20.5-20.7,30.5-30.8c4.2-4.3,8.4-8.5,12.7-12.8c5.3-5.4,11.7-9,19.1-10.7c4.6-1.1,9.1-2,13.5-2.9c0.5-0.1,1-0.2,1.5-0.3
		c-1.3-0.7-2.6-1.4-4-2l-13.8-5.9c-0.4-4-1.9-15.2-6.3-28.1c0,0,0-0.1,0-0.1l0,0c0-0.1-0.1-0.2-0.1-0.3c-1.1-3.1-3.4-5.7-6.9-7.7
		C140.5,4,125.9,1,114.6,0.2C104-0.6,85.3,1,75.1,3.7c-10.9,2.8-24.8,8.3-37.4,19c-3,2.5-4.8,5.5-5.4,8.7c0,0.2-0.1,0.4-0.1,0.5
		c-2.1,13.5-1.6,24.8-1.3,28.7l-12.6,8.2c-11.3,7.4-18,19.9-17.8,33.3L0,271.2c0.1,4.5,1.3,9,3.6,13l2.7,4.7l0.5,13
		c0.1,1.6,1.3,3,2.9,3.2l19.3,2.5c0.9,0.1,1.8-0.1,2.5-0.7c0.7-0.6,1.2-1.4,1.3-2.3l1.4-13.3c1.7-2.1,3-4.5,3.9-7.1
		c1.1-2.9,1.6-5.9,1.6-9l1.6-71.5c2.4,25,4.7,53.2,5.2,71c0.2,6,3.3,11.3,8.1,14.4l1.8,20.4c0.1,1.6,1.3,2.8,2.9,3
		c20.8,2.8,41.9,3.2,62.9,1.4c12.1-1.1,24.1-2.9,35.9-5.5c-3.6-1.6-7.2-3.5-10.7-5.5C144,301,138.3,297.8,135.9,291.3z M42.1,41.4
		c-2.5-3.3-3.7-6.2-3.3-8.7c0,0,0,0,0-0.1c0,0,0,0,0,0c0,0,0,0,0,0c0,0,0,0,0,0c0.3-1.7,1.4-3.3,3.2-4.9c10.6-9,22.4-14.1,32.2-16.8
		c11.8-3.4,30.4-5,42.7-3.7c10.1,1,22.5,3.9,34.5,11c2.1,1.2,3.4,2.7,4,4.3c0,0,0,0,0,0c0,0,0,0.1,0,0.1c0,0,0,0,0,0
		c0.8,2.4,0.2,5.4-1.8,9.1c-14.9-8-29.9-10.3-40.8-10.8c-8.7-0.3-23.9,1-32.3,2.8C69.8,26,55.4,31,42.1,41.4z M69.1,62
		c-9.7-5.5-17.3-10.9-22.4-15.7c11.9-9.2,24.9-13.7,34.6-15.9c9.1-2,22.5-3.2,31.9-2.8c10,0.5,23.5,2.7,36.8,9.6
		c-4.2,5.6-10.8,12.2-19.3,19.3c-12.1,10.1-24.9,18.6-29.2,21.4C96.8,76,82.8,69.8,69.1,62z"/>
</g>
</svg>
