<?xml version="1.0" encoding="utf-8"?>
<!-- Generator: Adobe Illustrator 22.0.1, SVG Export Plug-In . SVG Version: 6.00 Build 0)  -->
<svg version="1.1" id="Ebene_1" xmlns="http://www.w3.org/2000/svg" xmlns:xlink="http://www.w3.org/1999/xlink" x="0px" y="0px"
	 viewBox="0 0 247.9 224" style="enable-background:new 0 0 247.9 224;" xml:space="preserve">
<style type="text/css">
	.st0{fill:url(#SVGID_1_);}
	.st1{fill:url(#SVGID_2_);}
</style>
<g>
	<g>
		
			<linearGradient id="SVGID_1_" gradientUnits="userSpaceOnUse" x1="69.7621" y1="-36.4671" x2="69.7621" y2="204.6103" gradientTransform="matrix(0.9947 0.1032 -0.1032 0.9947 0.3978 18.177)">
			<stop  offset="0" style="stop-color:#FFAE27"/>
			<stop  offset="0.1816" style="stop-color:#FA9E2B"/>
			<stop  offset="0.5366" style="stop-color:#ED7437"/>
			<stop  offset="1" style="stop-color:#D93548"/>
		</linearGradient>
		<path class="st0" d="M106.9,140.5c0.9-7.5,2.1-15-2-22.1c-0.5-0.8-0.3-2.1-0.5-3.1c-1.1-4.9-2.3-9.8-3.4-14.7
			c-2-8.9-4.8-17.6-5.8-26.6c-1-8.1,0-16.4,0-24.6c0-2.7,0.4-5.6-2.5-6.8c0.1-3.3,0.2-6.4,0.2-8.4c-2.5-1.6-4.1-2.5-6.1-3.8
			c-1,1.7-2.2,3.3-2.8,5.1c-0.9,2.9-2.2,2.3-3.9,0.8c-0.4-0.4-0.9-0.7-1.7-1.3c-1.9,2.8-3.7,5.2-5.2,7.8c-1.6,2.7-2.9,5.5-4.4,8.3
			c-1.4-0.1-2.7,0.4-3,1.2c-1.2,2.8-2.3,5.6-3,8.6c-10.1,42.2-23.8,83-43.3,121.8c-3.3,6.5-6.2,13.1-9.8,19.4
			c-1.7,3-4.5,5.4-7.1,8.3c2.1-0.2,4.1,0.1,5.6-0.7c2.1-1,3.8-2.9,5.7-4.3c0.1,0.2,0.3,0.4,0.4,0.6c-0.4,0.8-0.7,1.6-1.1,2.4
			c0.2,0.1,0.3,0.2,0.5,0.3c4.3-4.9,8.5-9.8,12.8-14.6c-7.1,11.4-15.9,21.3-26.5,29.6c13.7-7.7,23.3-19.5,31.1-32.6
			c7.9-13.1,15-26.7,22.2-39.8c-0.1-0.2,0.1,0.2,0.6,1.6c3.8-9.8,7.2-18.9,10.8-27.9c3.6-9,7.4-17.9,10.9-26.3
			c7,22.2,14.9,45,28.3,65.5c0.3-3.8,0.6-7.4,1.5-10.9C106.4,149.3,106.4,144.9,106.9,140.5z"/>
		
			<linearGradient id="SVGID_2_" gradientUnits="userSpaceOnUse" x1="185.8333" y1="-77.3731" x2="185.8333" y2="191.542" gradientTransform="matrix(0.9947 0.1032 -0.1032 0.9947 0.3978 18.177)">
			<stop  offset="0" style="stop-color:#FFAE27"/>
			<stop  offset="0.1816" style="stop-color:#FA9E2B"/>
			<stop  offset="0.5366" style="stop-color:#ED7437"/>
			<stop  offset="1" style="stop-color:#D93548"/>
		</linearGradient>
		<path class="st1" d="M232.1,57.8c4.4-3.3,8.4-7.4,12.2-11.4c1.2-1.3,2.4-2.6,3.7-4L219.2,63l-0.3-0.3L243,43.2l-0.2-0.4l-9.5,6.2
			l-0.6-0.5l7.2-8.8l-0.9-0.8l-2.6,1.4l3.4-3.4l-0.4-0.5l-21.9,12.3c-25.2,17-51.5,32.4-77.3,49.4c0.8-5.6,1.7-9.8,2.1-14
			c0.8-9,0.9-18,2.1-26.9c1.4-11,3.7-21.9,5.4-32.9c0.8-5.2,1.3-10.5,1.7-15.8c0.1-2-0.6-4-1-6.8c-1.2,1.5-1.6,2.1-1.7,2.2
			c-1.4-1.2-2.8-2.3-4.5-3.7c-1.3,3.1-2.5,5.8-3.9,9.1c-1.4-0.6-3-1.3-5.3-2.4c-2.7,6-5.4,12-8.2,18.1c-1.2,0.3-2.5,1.1-2.8,2.1
			c-0.9,3.5-1.7,7-1.9,10.5c-2.3,36.4-4.6,72.8-6.4,109.2c-0.6,12.9,0.1,25.9,0.3,38.9l1.1,0.1c0.1-0.3,0.1-0.5,0.2-0.8
			c0.6,9.5,1.3,18.9,1.9,28.4c0.2,0,0.4,0,0.6,0c0.3-1.5,0.6-3.1,0.9-4.3c0.1,0.7,0.2,1.7,0.3,2.7l1,0.3l3.1-9.9
			c0.2,0.1,0.5,0.1,0.7,0.2c0,3.5,0,6.9,0,10.4c0.1,0,0.3,0,0.4,0l2.9-28.2c0.1,0,0.3,0,0.4,0c-0.6,13.2-1.1,26.4-1.7,39.6l1.3,0.1
			c1.2-15.5,2.3-30.9,3.5-46.4c0-1.5,0-3,0.1-4.5c-0.2-1.3-0.3-2.7-0.3-4c-0.2-1.4-0.2-2.9-0.2-4.2c0-0.1,0-0.1,0-0.2
			c0-0.8,0-1.6,0.1-2.3l2.9-28.4l0.2-2.4l1.9,1.7c13.2,12.5,26.1,25.3,39.6,37.5c4.3,3.8,8.7,7.5,13.2,11.1l0.3-0.4l-0.7-0.7
			l31.5,18l0.5-0.6l-4-4l3.1,1.6l1-0.9l-8.3-10.3l0.7-0.6l11,7.3l0.3-0.4l-27.9-23l0.3-0.4l10.9,8c-2.7-2.6-5.5-5.2-8.1-7.8
			c-3.5-3.4-5.9-7.8-9.1-11.5c-4.5-5.4-9.1-10.6-13.7-15.8c-1.8-2.1-3.9-4-5.8-6c-5.8-6.1-11.5-12.1-17.5-18.4
			c1.3-1,1.7-1.4,2.1-1.7C181.9,95.3,207.1,76.7,232.1,57.8z"/>
	</g>
</g>
</svg>
