<?xml version="1.0" encoding="utf-8"?>
<!-- Generator: Adobe Illustrator 22.0.1, SVG Export Plug-In . SVG Version: 6.00 Build 0)  -->
<svg version="1.1"
	 id="svg2" xmlns:cc="http://creativecommons.org/ns#" xmlns:dc="http://purl.org/dc/elements/1.1/" xmlns:rdf="http://www.w3.org/1999/02/22-rdf-syntax-ns#" xmlns:svg="http://www.w3.org/2000/svg"
	 xmlns="http://www.w3.org/2000/svg" xmlns:xlink="http://www.w3.org/1999/xlink" x="0px" y="0px" viewBox="0 0 1100 736.7"
	 style="enable-background:new 0 0 1100 736.7;" xml:space="preserve">
<style type="text/css">
	.st0{fill:#1A1A1A;}
</style>
<path id="path2987" class="st0" d="M243.7,485.5c-5-0.3-13.3-0.8-18.6-1.1c-18.7-1-30.3-1.7-31.9-1.9c-0.9-0.1-4.3-0.5-7.7-0.7
	s-6.9-0.6-8-0.8c-1-0.2-3.4-0.5-5.3-0.6c-6.3-0.5-12-1.3-16.6-2.5c-1.8-0.5-3.5-0.7-3.7-0.5c-0.3,0.2-0.4,0.1-0.2-0.2
	c0.2-0.4-1.5-0.6-5.5-0.8c-3.2-0.1-6.2-0.4-6.6-0.5c-0.4-0.2-0.9-1.2-1.1-2.2c-0.3-2.1-0.9-2.4-6-3.5c-1.9-0.4-4.9-1.2-6.6-1.8
	c-1.7-0.6-3.8-1.2-4.6-1.4c-2.2-0.5-2.2-1.7,0.1-3.9c2.4-2.4,4.3-3.3,8.1-4.2c2.5-0.6,5.9-2.9,5.9-4.1c0-0.4-2.3-1.2-5.5-1.9
	c-0.9-0.2-3.7-0.5-6.4-0.8c-2.6-0.2-6.1-0.8-7.8-1.3c-1.8-0.5-5.5-0.9-9.4-1c-7-0.2-10-1-10.4-2.9c-0.1-0.6-1.5-1.7-3.3-2.6
	c-1.7-0.8-3-1.7-2.8-2c0.2-0.2,0-0.3-0.4-0.2c-1.7,0.6-4.3-0.7-5.2-2.5c-1-2-0.5-3.8,1-3.7c0.4,0,0.8-0.2,0.8-0.4
	c0-0.2,1.6-0.4,3.6-0.5c2,0,3.7-0.3,3.8-0.6c0.1-0.3,0.6-0.5,1.2-0.5c0.5,0,1.1-0.2,1.3-0.5c0.2-0.3,0.6-0.5,0.9-0.5
	c0.3,0,0.4,0.2,0.3,0.4c-0.1,0.2,0.4,0.4,1.3,0.4c0.9,0,1.6-0.3,1.6-0.7c0-0.4,0.3-0.5,0.5-0.4c0.3,0.2,0.5,0.1,0.5-0.2
	c0-0.8-1.4-1.2-3.8-0.9c-1.3,0.1-3.4-0.1-4.7-0.4c-1.3-0.4-2.7-0.7-3.2-0.8c-0.4-0.1-1.2-0.4-1.7-0.6s-1.4-0.3-2-0.2
	c-1.4,0.3-1.8-0.4-0.8-1.2c0.4-0.4,0.8-0.4,0.8-0.2c0,0.3,0.2,0.2,0.4-0.1c0.7-0.9,2.8-1.8,2.8-1.3c0,0.3,0.2,0.5,0.5,0.6
	c0.3,0,0.5-0.2,0.3-0.4c-0.4-0.6,3.9-0.6,5,0c0.6,0.3,1.1,0.3,1.5-0.1c0.7-0.7,2.9-0.9,2.4-0.3c-0.5,0.8,1.2,0.5,1.9-0.3
	c0.5-0.6,1-0.6,2-0.2c1.7,0.7,2.3,0.7,1.3,0c-0.6-0.4-0.3-0.5,1.1-0.5c1,0,3.7-0.1,5.9-0.4c2.2-0.3,4.6-0.5,5.4-0.5
	c2.3-0.1,1.7-1.9-1.4-4c-1.8-1.2-2.6-2.2-2.4-2.7c0.2-0.5,0.5-0.6,0.9-0.3c0.3,0.3,1.1,0.3,1.7,0.1c0.6-0.2,2-0.4,3.1-0.4
	c1.5,0,2.2-0.3,2.9-1.4c1.2-1.7,1.4-2.7,0.7-4.1c-0.3-0.6-0.3-0.9,0-0.7c0.3,0.2,0.8-0.6,1.2-1.6c0.4-1.1,1-2.1,1.4-2.3
	c0.3-0.2-0.4-0.4-1.5-0.4c-1.6-0.1-1.9-0.2-1.3-0.6c0.6-0.4,0.4-0.5-0.9-0.5c-1,0-2.1-0.3-2.6-0.6c-0.5-0.3-3.1-1.4-5.8-2.6
	c-5.4-2.3-8.5-2.9-20-3.7c-8.8-0.6-9.8-0.7-11.1-1.5c-1.4-0.8-8.6-2.1-13.2-2.3c-2.4-0.1-4.6-0.6-6.1-1.4c-1.3-0.6-3.6-1.4-5-1.6
	c-2.9-0.5-6.6-1.9-6.6-2.5c0-0.2,1.4-0.8,3.1-1.3c2.6-0.8,4.8-0.9,14.3-0.7c7.5,0.2,11.8,0,13.2-0.4c2-0.6,3.9-0.5,8.8,0.6
	c1.3,0.3,4.8,0.6,7.9,0.8c3.1,0.1,6.1,0.5,6.7,0.8c0.6,0.3,1.8,0.4,3,0.2c1.1-0.2,2.2-0.3,2.4-0.2c0.9,0.3,17.1,0.5,19,0.3
	c3.1-0.4,6.9-0.6,12.2-0.7c2.7-0.1,5.3-0.4,5.6-0.7c0.6-0.5-0.4-0.9-2.1-0.7c-0.4,0-0.7-0.2-0.7-0.5c0-0.3-0.3-0.5-0.8-0.3
	c-0.4,0.1-1.1-0.1-1.4-0.5c-0.5-0.6-0.7-0.7-1.1-0.1c-0.4,0.6-0.5,0.5-0.4,0c0-0.4-0.4-0.6-1-0.4c-0.7,0.2-1.1,0-1.3-0.7
	c-0.2-0.5-0.1-1,0.2-1.1c0.8-0.3,2.2-1.6,2.2-2.2c0-0.8-2.1-2.7-2.6-2.4c-0.3,0.2-0.4-0.1-0.2-0.5c0.2-0.6,0-0.7-0.9-0.5
	c-1,0.2-1.1,0.1-0.8-0.6c0.5-1.3-0.6-1.7-1.5-0.6c-0.5,0.6-0.7,0.7-0.5,0.2c0.3-0.9-2.1-2.4-3-1.8c-0.3,0.2-0.4,0.1-0.2-0.3
	c0.2-0.3,0.1-0.6-0.2-0.6c-0.3,0-0.6,0.3-0.6,0.8c0,1.1-1.1,1-1.1-0.2c0-0.8-0.1-0.8-0.5,0.1c-0.3,0.6-0.4,1.2-0.3,1.3
	c0.1,0.2-0.3,0.3-0.9,0.3c-1.2,0.1-1.3-0.4-0.2-1.1c0.7-0.5,0.2-0.6-2.2-0.5c-1.8,0.1-2.9-0.1-2.7-0.4c0.2-0.3-0.2-0.4-0.8-0.2
	c-0.6,0.1-1.1,0-1.1-0.4c0-0.3-0.3-0.5-0.6-0.3c-0.4,0.3-0.5,0.1-0.2-0.6c0.2-0.6,0.5-1.3,0.6-1.7c0.2-1.2,1.6-1.6,3.3-0.8
	c0.9,0.4,1.3,0.8,0.9,0.8c-1.3,0.1-0.7,1.1,0.7,1.1c1,0,1.3-0.2,1.1-0.8c-0.2-0.4,0-0.9,0.3-1.1c0.3-0.2,0.3-0.6-0.1-1.2
	c-0.6-0.7-0.5-0.8,0.2-0.5c0.5,0.2,1.2,0.1,1.6-0.2c0.6-0.4,0.6-0.5-0.2-0.2c-0.8,0.2-0.9,0.1-0.6-1.2c0.2-0.8,0.6-1.6,0.8-1.7
	c0.8-0.5,0-2.6-0.9-2.3c-0.6,0.2-0.7,0-0.6-0.7c0.1-0.7-0.1-1-0.9-0.9c-0.6,0-0.8,0-0.4-0.2c0.4-0.2,0.6-0.5,0.4-0.7
	s0.2-0.8,0.8-1.2s0.9-0.9,0.7-1.1c-0.2-0.2,0.1-0.4,0.7-0.3c0.8,0,0.9-0.1,0.2-0.5c-0.5-0.3-0.9-0.3-1.2,0.1
	c-0.2,0.3-0.5,0.5-0.7,0.3c-0.3-0.3,0.7-2.6,1.4-3.1c0.6-0.4,1.3-2.8,0.8-2.5c-0.3,0.2-0.8-0.2-1.1-0.7c-0.5-0.9-0.4-1,0.8-0.9
	c0.9,0.1,1.4-0.1,1.3-0.5c-0.1-0.4,0.1-0.6,0.3-0.6c1.1,0.2,1.7-0.1,1.8-0.8c0-0.4,0.3-0.8,0.6-0.8c0.3,0,0.4-0.2,0.3-0.5
	c-0.2-0.3,0-0.6,0.4-0.7c0.4-0.2,0.3-0.3-0.3-0.3c-0.5,0-0.9-0.2-0.9-0.5c0-0.2-0.8-0.4-1.9-0.4c-1,0-1.7-0.2-1.6-0.4
	c0.2-0.3-0.2-0.5-0.8-0.5c-0.6,0-1-0.3-0.8-0.6c0.2-0.3,0.1-0.5-0.3-0.5c-0.4,0-0.5-0.4-0.3-0.9c0.3-0.7,0.2-0.8-0.5-0.2
	c-0.7,0.5-0.8,0.5-0.8-0.1c0-0.4,0.5-0.9,1.1-1.1c0.6-0.2,1.1-0.7,1.1-1.4c0-0.9-0.2-1.1-1.4-0.9c-1.2,0.2-1.3,0.2-0.5-0.3
	c0.9-0.5,0.8-0.7-0.2-1.9c-0.6-0.7-1.5-1.4-1.9-1.4c-1.6,0-0.2-0.6,2-0.7c1.3-0.1,2.1,0,1.9,0.3c-0.2,0.3-0.1,0.5,0.2,0.5
	c0.3,0,0.7-0.2,0.8-0.4c0.2-0.2,1.1-0.4,2-0.3c1,0.1,2-0.1,2.4-0.3c0.4-0.3,0.8-0.2,1,0.1c0.2,0.4,0.7,0.4,1.3,0.1
	c0.6-0.3,1.6-0.5,2.2-0.4c1.9,0.1,8.4-0.3,8.9-0.6c0.4-0.2,6.2-0.8,8-0.8c0.9,0,0.9-2.5,0-3.2c-0.4-0.3-0.8-1.3-0.9-2.1
	c-0.1-0.9-0.3-1.4-0.7-1.2c-0.4,0.1-0.5-0.1-0.4-0.5c0.2-0.5-0.3-0.8-1.3-1.1c-1.7-0.4-3-1.6-2.5-2.4c0.2-0.3-0.1-0.4-0.7-0.2
	c-0.8,0.2-1.1,0-1-0.7c0-0.5-0.5-1-1-1.2c-1.2-0.3-1.4-1-0.4-1.5c0.4-0.2,0.5-0.1,0.2,0.3c-0.2,0.3-0.2,0.6,0,0.6
	c1.1-0.2,1.8,0.2,1.7,0.9c0,1.1,1.3,0.7,1.5-0.5c0.1-0.5,0-0.9-0.2-0.8c-1.5,0.2-2.3-0.2-2.3-1.2c0-0.6,0.3-0.9,0.6-0.8
	c0.3,0.2,0.5-0.2,0.6-0.8c0-0.6,0.4-1.1,0.8-1.1c0.4,0,0.9-0.3,1.1-0.8c0.2-0.4,0.1-0.7-0.2-0.5c-0.3,0.2-0.6,0-0.7-0.4
	c-0.1-0.4-0.2-0.3-0.1,0.3c0.1,0.5-0.1,0.9-0.4,0.9c-0.3,0-0.5-0.3-0.5-0.6c0-0.3-0.3-0.2-0.8,0.4c-0.6,0.7-0.6,1.1-0.2,1.4
	c0.3,0.2,0.1,0.3-0.5,0.3c-1-0.1-1.6-1.5-0.7-1.5c0.2,0,0.5-0.7,0.7-1.6c0.3-1.3,0.6-1.6,1.7-1.6c0.7,0,1.3-0.2,1.4-0.5
	c0-0.3,0.5-0.5,1.1-0.5c1.1,0,1.4,0.8,0.5,1.3c-1,0.6-0.1,1.2,1.6,1.1c2.2-0.1,2.7-0.7,0.8-0.8c-1.5-0.1-1.5-0.1-0.2-0.4l1.3-0.3
	l-1.2-0.7c-1.4-0.8-1.5-1.7-0.3-1.7c0.5,0,0.7,0.3,0.5,0.5c-0.2,0.3-0.1,0.5,0.2,0.5c0.3,0,0.6-0.5,0.6-1c0-0.6,0.4-1.1,0.9-1
	c0.8,0,0.8-0.1-0.1-0.8c-0.8-0.6-1.1-0.6-1.3-0.1c-0.2,0.4-0.7,0.5-1.3,0.3c-0.9-0.4-0.9-0.4-0.1-1.3c0.5-0.5,1.3-0.9,1.7-0.9
	c0.7,0,1-0.6,0.9-1.7c0-0.2,0.3-0.4,0.8-0.4c0.5,0,0.7-0.2,0.5-0.5c-0.4-0.7,0.6-1.2,1.4-0.8c0.4,0.2,0.3,0.6-0.1,1.1
	c-0.5,0.5-0.5,0.7,0,0.7c0.6,0,0.8-0.6,0.7-2.3c-0.1-1.3,0.9-1.9,3.4-1.8c1.2,0,1.9-0.2,1.9-0.5c-0.1-0.4,1-0.6,3.1-0.5
	c1.8,0,3.5-0.2,3.9-0.4c0.4-0.3,1.4-0.3,2.2-0.2c1.1,0.2,1.7,0.1,2.3-0.5c0.4-0.5,0.5-0.7,0.2-0.5c-0.3,0.2-1.1-0.6-1.9-1.9
	c-0.8-1.3-1.5-2.1-1.5-1.8c0,0.3-0.5,0-1.1-0.5c-0.6-0.5-1-1.3-1-1.6c0-0.3,0.3-0.2,0.5,0.4c0.3,0.5,0.9,1,1.4,1
	c0.6,0,0.7-0.1,0.3-0.6c-0.3-0.3-0.4-1-0.3-1.4c0.3-0.6,0.4-0.6,0.7,0c0.3,0.5,0.4,0.4,0.4-0.3c0-1.3-1.2-3.1-1.8-2.6
	c-0.2,0.2-0.3,0.1,0-0.3c0.2-0.4,0.6-0.5,0.9-0.3c0.3,0.2,0.5,0.1,0.5-0.2c0-0.3-0.2-0.7-0.5-0.9c-0.7-0.4,0-2,1.2-2.8
	c0.5-0.4,0.8-0.9,0.7-1.2c-0.2-0.4,0.1-0.4,0.9-0.1c1,0.3,1.1,0.3,0.6-0.3c-0.8-0.9-0.8-2.5,0-2.7c0.5-0.2,0.7-1.1,0.5-3.2
	c0-0.6-0.5-0.9-1.2-1c-0.6,0-0.9-0.2-0.5-0.4c0.8-0.5,1.4-2.1,0.8-2.5c-0.3-0.2-0.6,0-0.7,0.4c-0.1,0.4-0.4,0.5-0.6,0.4
	s-0.1-0.6,0.2-1c0.4-0.6,0.7-0.6,1.6,0.3c1,1,1.1,1,1.1,0c0-0.6,0.2-0.7,0.3-0.3c0.1,0.4,0.5,0.7,0.8,0.7c0.3,0,0.4-0.3,0.3-0.8
	s-0.1-0.8,0.1-0.7c0.2,0,1.1-0.2,1.9-0.5s1.7-0.4,2-0.3c0.3,0.2,0.5,0,0.5-0.3c0-0.3,0.2-0.5,0.5-0.3c0.3,0.2,0.6,0.1,0.8-0.2
	c0.2-0.3,0.7-0.5,1.2-0.5c1.5,0,2.4-0.2,4.8-1.4c1.3-0.6,2.6-1.1,3-1.1c0.4,0,0.8-0.3,1-0.6c0.2-0.7,5.2-0.9,5.2-0.2
	c0,0.2,0.7,0.2,1.5,0c1.6-0.4,5-0.2,7.4,0.4c1.3,0.3,1.7,0.2,2.3-0.9c0.4-0.7,0.6-1.5,0.4-1.8c-0.4-0.7-4-1.3-9.9-1.6
	c-2.8-0.1-5.6-0.6-6.2-0.9c-0.6-0.4-1.3-0.6-1.6-0.6s-1.3,0-2.4-0.1c-1.5-0.1-2-0.4-2.2-1.2c-0.2-0.9,0-1.1,1.2-1.1
	c1.4,0,1.4,0,0.4-0.8c-0.9-0.7-0.5-0.8,3.9-0.5c2.7,0.1,4.9,0.4,4.9,0.6c0,0.2,0.7,0.3,1.5,0.2c3.6-0.3,9.1-0.6,11.2-0.6
	c1.2,0,2.1-0.2,2-0.4c-0.1-0.2,0.2-0.5,0.7-0.5c2.1-0.1,2.6-0.2,3.5-0.6c0.5-0.2,1.4-1.3,2-2.4c1.1-2,2.8-3.1,3.2-2.1
	c0.1,0.4,0.4,0.4,1,0c0.5-0.4,0.9-0.4,1.1-0.1c0.4,0.6,8.9,0.8,9.5,0.2c0.2-0.2,0.6-0.1,0.9,0.2c0.7,0.6,3.9,0.6,4.8,0
	c0.3-0.2,1.4-0.1,2.4,0.2c1,0.3,6.2,0.8,11.6,1.1c5.4,0.3,12.9,0.7,16.7,1c20.5,1.3,26.7,1.6,39.5,1.9c10,0.2,14,0.5,13.9,0.9
	c0,0.4,0.2,0.4,0.7,0c0.7-0.6,3.9-0.6,13.1-0.3c2.8,0.1,5.3,0.2,5.6,0.2c0.3,0,3.2-0.2,6.4-0.4c3.2-0.2,6.3-0.2,6.7-0.1
	c0.5,0.2,1,0.1,1.2-0.1c0.2-0.2,2.3-0.4,4.7-0.4c2.4,0,5.8-0.2,7.5-0.5c1.7-0.3,6.1-0.5,9.9-0.5c3.7,0,8.5-0.1,10.5-0.2
	c2.1-0.1,4.2,0.1,4.7,0.4s0.9,0.3,0.7,0.1c-0.2-0.3,1.9-0.4,4.9-0.3c2.8,0.1,6-0.1,7-0.4c1.4-0.4,2-0.4,2.3,0c0.3,0.4,0.4,0.4,0.4,0
	c0-0.4,1.5-0.6,3.9-0.6c5.3,0,21.3,0.3,24.6,0.5c1.5,0.1,4.8,0.1,7.5,0c6.4-0.3,16.2-0.2,16.2,0.1c0,0.4,2.5,0.3,6.8-0.3
	c2.1-0.3,4.5-0.4,5.3-0.2c1.8,0.5,5.4,0.8,5.4,0.3c0-0.2,0.7-0.3,1.5-0.3c14.9,0.4,43,0.1,43.9-0.4c0.2-0.1,0.4,0,0.4,0.2
	c0,0.3,0.7,0.4,1.6,0.3c0.9-0.1,2,0,2.5,0.2c1.2,0.5,3.3,0.7,3,0.3c-0.1-0.2,3.9-0.2,9,0c5,0.2,9.1,0.4,9.1,0.4
	c0,0.1,1.5,0.2,3.3,0.3c1.8,0.1,3.3,0,3.3-0.2c0-0.2,0.8-0.1,1.9,0.1c1,0.3,2,0.3,2.1,0.1c0.1-0.2,2.4-0.3,5.1-0.2
	c2.9,0.1,4.8-0.1,4.8-0.4c0-0.3,0.2-0.3,0.4,0.1c0.5,0.7,4.5,0.8,5,0.1c0.3-0.3,0.4-0.3,0.4,0c0,0.3,0.9,0.5,2,0.5
	c1.1,0,2.5,0.2,3.2,0.5c0.7,0.3,1.6,0.3,2.2,0c1-0.5,3.2-0.6,14.7-1c2.9-0.1,7.7-0.3,10.7-0.5s9.5-0.3,14.6-0.2
	c5.1,0.1,10.3,0,11.4-0.2c1.2-0.2,7.6-0.2,14.4-0.1c15.8,0.3,27.7,0.1,32.4-0.3c2.1-0.2,6.5-0.7,9.9-1c3.4-0.4,9-0.8,12.5-1.1
	s7.5-0.5,8.8-0.7c4.3-0.4,8.7-0.2,12.3,0.6c2.2,0.5,9.1,0.9,19,1.1c8.5,0.2,15.7,0.5,15.9,0.6c0.2,0.1,9.2,0.6,20,1.1
	c10.8,0.5,21.6,1,23.9,1.2c13.1,1.1,23.1,1.6,44.9,2.1c3.1,0.1,6.4,0.2,7.4,0.3c2.2,0.3,12.4,1,22,1.6c20.8,1.3,28.5,1.7,42.5,2.2
	c8.5,0.3,16.3,0.8,17.3,1c1,0.2,3.8,0.5,6.1,0.6c4.3,0.3,9.3,1,9.9,1.4c0.2,0.1,2,0.4,4,0.6c2,0.2,5.1,0.6,6.8,1
	c1.7,0.3,3.9,0.7,4.8,0.8c0.9,0.1,3.5,0.8,5.9,1.5c2.4,0.7,4.8,1.2,5.4,1.3c0.6,0,1.1,0.2,1.1,0.5c0,0.2,0.3,0.5,0.7,0.5
	c3.6,0.1,12.2,1.2,13.5,1.6c0.9,0.3,2.2,1.3,2.8,2.2c1.2,1.7,4.4,3.5,7.3,4.1c3.7,0.7,10,1.5,11.4,1.3c0.7-0.1,1.4,0.1,1.3,0.5
	c0,0.3,0.2,0.4,0.4,0.2c0.2-0.2,0.9,0.1,1.5,0.7c0.6,0.6,2.7,2,4.6,3c2.8,1.6,4.3,2,7.3,2.3c4,0.3,4.7,0.8,4.2,2.9
	c-0.3,1.3-2.4,2.3-4.8,2.3c-0.7,0-1.4,0.2-1.6,0.5s-1.2,0.5-2.1,0.5c-2.8-0.1-7.2,0.9-7.2,1.6c0,1.1,4,2.6,8,3
	c2.1,0.2,7.1,0.5,11.1,0.8c8,0.6,8.8,0.7,9.2,1.8c0.6,1.6-6.9,7-12.9,9.3c-2,0.7-3,1.5-3.6,2.8c-1.2,2.2-0.7,3.2,2.5,5.2
	c1.2,0.8,2.2,1.8,2.2,2.2c0,0.4,0.3,1.2,0.8,1.6c1.2,1.3,0.9,2.6-0.9,3.6c-0.9,0.5-2.7,1.9-4,3c-2,1.8-2.8,2.1-4.9,2.2
	c-1.9,0.1-2.9,0.4-3.5,1.3c-0.5,0.6-0.8,1.3-0.7,1.6c0.1,0.2,0,0.4-0.3,0.4c-0.3,0-0.8,0.5-1.2,1.2c-0.4,0.6-0.5,1-0.2,0.8
	c0.6-0.5,2,1.1,1.6,1.7c-0.2,0.3,0.1,0.4,0.6,0.3c0.5-0.1,0,0.2-1.2,0.8c-1.2,0.6-2.9,1-3.8,1c-0.9,0-2.3,0.2-3.1,0.5
	c-1,0.4-1.4,0.3-1.4-0.2c0-0.4-0.2-0.2-0.6,0.2c-1,1.7-0.1,3.6,2.5,5c1.4,0.7,2.8,1.9,3.3,2.6c0.4,0.7,1.7,1.6,2.9,2
	c4.3,1.4,4.9,4.2,1.1,5.1c-2.3,0.6-3.5,2.3-2.8,4.2c0.3,1,0.3,1.4-0.1,1.4c-1,0-2,1.3-1.9,2.6c0,1.3,0,1.3-4.5,2.2
	c-0.7,0.2-2.1,0.9-3,1.6c-0.9,0.7-2.3,1.7-3.1,2.1c-0.8,0.4-1.5,1.1-1.5,1.5c0,1-2,2-4.3,2.1c-2.5,0.2-3.6,0.8-3.7,2.2
	c-0.1,1.2,1.9,3.7,3,3.8c0.7,0,3.6,3.2,3.6,3.8c0,0.9-2,1.5-5.7,1.7c-2,0.1-4.9,0.4-6.4,0.7c-2.4,0.5-11.1,1.7-13.1,1.9
	c-0.8,0.1-1.2,2-0.4,2c0.2,0,0.2,0.5-0.1,1c-0.3,0.5-0.4,1.2-0.2,1.4c0.7,0.7,0.3,7.5-0.5,8.2c-0.4,0.4-1.8,0.8-3.2,0.8
	c-2.2,0.1-3.6,0.9-3.2,1.7c0.1,0.2-0.2,0.6-0.6,1c-0.4,0.4-0.8,0.5-0.7,0.3c0-0.2-0.3-0.1-0.6,0.2c-0.5,0.4-0.8,0.4-1.3,0
	c-0.5-0.4-1.1-0.4-2.3,0c-2.7,1-1.9,2.7,1.8,3.4c4.1,0.8,5,1.2,4.3,1.8c-0.2,0.2-4,0.3-8.4,0.3c-9.5,0-10.6,0.4-11.4,4.2
	c-0.3,1.3-1.1,3.2-1.8,4.2c-1.2,1.8-2.1,4.1-2.2,5.5c0,0.3-0.8,0.6-1.8,0.7c-1.2,0.1-1.9,0.4-2.1,1.1c-0.2,0.6-0.5,0.9-0.8,0.7
	s-0.5-0.1-0.5,0.2c0,0.3-1.1,1.1-2.5,1.9c-3.8,2.1-4.4,3.9-1.6,5c1.3,0.5,1.4,0.9,0.4,3.2c-0.7,1.6,1,2.7,6.7,4.3
	c5.5,1.5,7.1,2.5,5.4,3.5c-1,0.6-8.2-0.2-19.5-2.2c-5.1-0.9-7.3-0.6-8.5,1.4c-1.2,2-2.4,2.5-6,2.7c-2.9,0.2-5.7,1.5-5.7,2.9
	c0,0.8,2.3,1.6,5,1.8c2,0.1,4.4,1.6,3.2,2c-0.4,0.1-1,0.6-1.5,1c-0.4,0.4-0.8,0.6-0.8,0.5c0-0.6-3.3,1.3-3.9,2.3
	c-0.8,1.3-3.6,3-4.7,2.9c-2.7-0.2-6.4,0-6.4,0.5c0,0.8,2.7,3.3,3.3,2.9c0.3-0.2,0.4-0.1,0.2,0.3c-0.2,0.3-0.1,0.7,0.2,0.9
	s0.4,0.6,0.2,0.9c-0.2,0.3,0,0.9,0.3,1.3c1,1.3,0,1.8-4.1,1.9c-2,0.1-4.8,0.4-6.1,0.6c-1.3,0.3-5.8,0.9-9.9,1.4
	c-4.1,0.5-8.8,1.4-10.5,1.9c-1.7,0.5-4.4,0.9-6.3,0.9c-1.8,0-5,0.4-7.2,0.9c-3.7,0.9-4.9,0.9-22.5,0.2c-10.2-0.4-20.6-0.9-23.1-1.1
	c-6.5-0.5-14.4-1.3-15.5-1.5c-0.5-0.1-6.7-0.5-13.8-0.9c-10.1-0.5-14.4-0.6-20.1,0c-4,0.4-11.2,0.7-16.2,0.7
	c-4.9,0.1-9.8,0.2-10.9,0.3c-3.7,0.4-16.4,0.9-23.8,1c-4.1,0.1-11.5,0.2-16.5,0.4c-5,0.1-15,0.3-22.4,0.3c-7.3,0-14,0-14.9,0.1
	c-0.9,0.1-6.9,0.2-13.4,0.2c-6.5,0-12.5,0.1-13.3,0.2c-1.6,0.2-5.7,0.3-19.9,0.9c-11.2,0.4-19.6,1-26.5,1.7c-3,0.3-6.4,0.6-7.5,0.6
	c-1.1,0-2.7,0.2-3.6,0.4s-3.1,0.5-4.9,0.7c-1.8,0.1-5.7,0.6-8.5,1.1c-2.9,0.5-6.6,1-8.4,1.1c-1.8,0.1-5,0.4-7.2,0.6
	c-2.2,0.2-5.4,0.5-7.2,0.6c-1.8,0.1-5.8,0.5-9,0.9c-3.2,0.4-7.7,0.8-10.1,0.9s-5.7,0.3-7.4,0.5c-1.7,0.2-6,0.3-9.6,0.3
	s-8.3,0.1-10.5,0.3c-4.3,0.4-13.6,0.7-20.8,0.6c-2.5,0-5.6,0.1-6.9,0.3c-1.3,0.2-10.4,0.3-20.2,0.2c-9.8-0.1-18.3-0.1-19,0
	s-5.8,0.2-11.5,0.3c-5.7,0.1-11.5,0.1-13,0.2s-6.9,0.1-12,0.2c-5.1,0-11.4,0.2-13.8,0.3c-2.5,0.1-4.8,0.2-5.1,0.1
	c-0.3-0.1-4,0-8.3,0.2c-4.3,0.2-10.1,0.4-13.1,0.5c-2.9,0.1-6.2,0.2-7.2,0.3s-5.1,0.2-9.1,0.3s-7.3,0.2-7.5,0.3
	c-0.1,0.1-3.3,0.2-6.9,0.3c-3.7,0.1-7.1,0.3-7.7,0.4c-1.1,0.2-38.8-0.1-55.1-0.4C256.7,486.2,248.7,485.8,243.7,485.5L243.7,485.5z
	 M135.7,416.9c0.3,0,0.1-0.5-0.5-1.1c-0.8-1-1.5-1.1-4.7-1.1c-2,0-3.8,0.3-3.9,0.6c-0.3,0.8,3.4,1.8,6.2,1.7
	C134.2,416.9,135.5,416.9,135.7,416.9z M149,388.1c0-0.1-0.2-0.2-0.5-0.2c-0.3,0-0.5,0.2-0.5,0.5c0,0.3,0.2,0.4,0.5,0.2
	S149,388.3,149,388.1z M122.3,371.6c0-0.1-0.4-0.4-0.8-0.5c-0.5-0.2-0.7-0.1-0.5,0.2C121.3,371.7,122.3,372,122.3,371.6L122.3,371.6
	z M128.7,354.8c-0.5-0.5-0.6-0.5-0.3,0.3c0.2,0.5,0.5,0.8,0.6,0.7C129.2,355.6,129,355.1,128.7,354.8L128.7,354.8z M133.1,348.5
	c-0.5-0.5-0.6-0.5-0.3,0.3c0.2,0.5,0.5,0.8,0.6,0.7C133.6,349.3,133.4,348.9,133.1,348.5L133.1,348.5z M129.1,345.3
	c-0.2-0.3-0.4-0.5-0.5-0.5c-0.1,0-0.2,0.2-0.2,0.5c0,0.3,0.2,0.5,0.5,0.5C129.2,345.9,129.3,345.6,129.1,345.3z M150.9,320.5
	c-0.4-0.2-0.8-0.2-1,0c-0.2,0.2,0.1,0.3,0.7,0.3C151.2,320.8,151.3,320.7,150.9,320.5L150.9,320.5z M150.8,319.1
	c-0.8-0.7-2.1-2.8-2-3.4c0-0.2,0.4,0,0.8,0.4c1,0.9,1.7,0.3,0.8-0.8c-0.7-0.9-2.1-0.2-2.2,1.1c0,0.4-0.2,0.6-0.4,0.5
	c-0.2-0.1-0.5,0.2-0.5,0.8c-0.1,0.7,0.2,1,0.9,1.1c0.6,0,1,0.3,1,0.6c0,0.3,0.5,0.5,1.2,0.5C151.4,319.8,151.5,319.7,150.8,319.1
	L150.8,319.1z M147.6,317.9c0-0.1,0.2-0.4,0.5-0.5c0.3-0.2,0.5-0.1,0.5,0.2c0,0.3-0.3,0.6-0.5,0.5
	C147.9,318.1,147.6,318,147.6,317.9z M157.3,307.1c0-0.7,0-0.9-0.2-0.5c-0.2,0.4-0.5,0.5-0.7,0.4c-0.3-0.2-0.3,0.1-0.2,0.5
	C156.6,308.6,157.2,308.5,157.3,307.1z M154.6,306.6c0.6-0.9-0.1-1.1-0.8-0.3c-0.4,0.5-0.5,0.8-0.1,0.8
	C154,307.1,154.4,306.9,154.6,306.6L154.6,306.6z M172.3,288.8c0-0.1-0.4-0.4-0.8-0.5c-0.4-0.2-0.8-0.1-0.8,0.2
	c0,0.3,0.3,0.5,0.8,0.5S172.3,288.9,172.3,288.8L172.3,288.8z M82.5,428.3c0-0.3,0.3-0.6,0.6-0.8c0.3-0.2,0.5,0.1,0.5,0.5
	c0,0.5-0.3,0.8-0.6,0.8C82.8,428.8,82.5,428.6,82.5,428.3z M105.3,385.1c0.3-0.3,0.9-0.4,1.3-0.3c0.4,0.1,0.1,0.4-0.6,0.5
	C105.1,385.6,104.9,385.5,105.3,385.1z M112.9,385.4c-0.5-0.4-0.6-0.6-0.1-0.6c1.2-0.1,1.5-0.2,2.1-0.6c0.4-0.2,0.8-0.1,1,0.2
	c0.2,0.4,0.1,0.5-0.2,0.2c-0.4-0.2-0.6-0.1-0.6,0.4C115,386.1,114.1,386.2,112.9,385.4z M110.2,384.1c0.4-0.4,0.8-0.4,1.1-0.1
	s0.1,0.6-0.6,0.6C109.9,384.7,109.7,384.6,110.2,384.1L110.2,384.1z M123.8,376.3c0-0.5,0.3-0.7,0.5-0.5c0.3,0.2,0.5,0.6,0.5,0.8
	c0,0.3-0.3,0.5-0.5,0.5C124,377.2,123.8,376.8,123.8,376.3z M124.6,367.4c0.9-1.6,1-1.7,0.9-0.4c-0.1,0.6-0.4,1.2-0.8,1.4
	C124.1,368.6,124.1,368.4,124.6,367.4L124.6,367.4z M128.3,348c-0.4-0.3-0.2-0.5,0.8-0.8c1.8-0.4,2.1-0.1,0.8,0.6
	C129.4,348.2,128.6,348.2,128.3,348L128.3,348z M139.9,312.3c0.2-0.2,0.6-0.2,1,0c0.4,0.2,0.3,0.3-0.3,0.3
	C140.1,312.6,139.8,312.5,139.9,312.3L139.9,312.3z M141.6,310.2c0.2-0.2,0.6-0.2,1,0c0.4,0.2,0.3,0.3-0.3,0.3
	C141.7,310.5,141.4,310.4,141.6,310.2z M151.2,303.6c0-0.6,0.1-0.9,0.3-0.7c0.2,0.2,0.2,0.6,0,1
	C151.4,304.4,151.2,304.3,151.2,303.6L151.2,303.6z M170.6,274.5c-0.5-0.3-0.5-0.5-0.2-0.5c0.3,0,0.8,0.3,0.9,0.5
	C171.8,275.2,171.6,275.2,170.6,274.5L170.6,274.5z"/>
</svg>
